<?xml version="1.0" encoding="utf-8"?>
<!-- Generator: Adobe Illustrator 17.0.0, SVG Export Plug-In . SVG Version: 6.00 Build 0)  -->
<!DOCTYPE svg PUBLIC "-//W3C//DTD SVG 1.1//EN" "http://www.w3.org/Graphics/SVG/1.1/DTD/svg11.dtd">
<svg version="1.1" id="Calque_1" xmlns="http://www.w3.org/2000/svg" xmlns:xlink="http://www.w3.org/1999/xlink" x="0px" y="0px"
	 width="508.572px" height="492.91px" viewBox="0 0 508.572 492.91" enable-background="new 0 0 508.572 492.91"
	 xml:space="preserve">
<circle fill="#F4971B" cx="246.688" cy="246.455" r="246.455"/>
<path fill="#ED8F21" d="M175.211,108.317c-1.738,0.313-7.431-4.965-8.643-5.997c-9.435-8.036-17.347-24.104-17.64-36.569
	c0,0,32.345-15.385,32.369-15.397c-1.154,0.549,1.684,10.959,1.942,11.87c2.212,7.805,6.862,14.376,12.177,20.374
	c2.408,2.717,5.05,6.223,8.226,8.13C203.643,90.728,187.051,106.169,175.211,108.317z"/>
<path fill="#7D4C3A" d="M136.342,59.826l10.296,6.371c7.46,4.616,10.124,14.185,6.14,22.001c-0.792,1.555-1.287,2.556-1.188,2.441
	c0.39-0.449-15.77-30.683-15.77-30.683"/>
<path fill="#7D4C3A" d="M151.916,97.532h-8.931c-1.037,0-1.886-0.848-1.886-1.885l0,0c0-1.037,0.848-1.886,1.886-1.886h8.931
	c1.037,0,1.886,0.848,1.886,1.885v0C153.802,96.684,152.953,97.532,151.916,97.532z"/>
<path fill="#1D2040" d="M146.897,104.257L146.897,104.257c-0.741,0-1.347-0.606-1.347-1.347v-1.984c0-0.741,0.606-1.347,1.347-1.347
	l0,0c0.741,0,1.347,0.606,1.347,1.347v1.984C148.244,103.651,147.638,104.257,146.897,104.257z"/>
<path fill="#F8BAA4" d="M120.238,97.39c1.234,0.007,2.228,1.014,2.22,2.247l-0.052,7.606l-0.053,6.644l-2.612-0.015
	c-0.191-0.004-0.382-0.007-0.562-0.035c-4.367-0.331-7.815-4.149-7.792-8.514c0.008-2.266,0.972-4.193,2.504-5.692
	c1.372-1.336,3.222-2.098,5.268-2.212l0.012-0.001c0.237-0.034,0.439-0.043,0.678-0.03L120.238,97.39z"/>
<g>
	<rect x="300.947" y="316.361" fill="#726F82" width="59.412" height="12.952"/>
	<rect x="350.798" y="272.314" fill="#726F82" width="13.513" height="182.404"/>
	<rect x="296.538" y="271.22" fill="#B1AEC1" width="13.513" height="183.498"/>
	<rect x="78.197" y="308.525" fill="#726F82" width="64.344" height="12.952"/>
	<rect x="129.704" y="269.104" fill="#726F82" width="13.513" height="182.404"/>
	<rect x="75.444" y="268.01" fill="#726F82" width="13.513" height="183.498"/>
	<path fill="#E79371" d="M375.861,272.174h-135.52v-10.552c0-3.194,1.719-5.783,3.839-5.783h127.841c2.12,0,3.839,2.589,3.839,5.783
		V272.174z"/>
	<g>
		<path fill="#A6493D" d="M336.357,261.625v10.552H75.444v-10.552c0-3.194,1.717-5.788,3.837-5.788H332.52
			C334.64,255.837,336.357,258.431,336.357,261.625z"/>
		<path fill="#853530" d="M260.865,255.837c-2.07,5.082-4.537,11.143-6.647,16.339h-63.835l0.871-16.339H260.865z"/>
	</g>
</g>
<g>
	<rect x="401.376" y="282.205" fill="#803A55" width="100.997" height="126.558"/>
	<rect x="365.585" y="282.205" fill="#6F3856" width="99.254" height="126.558"/>
	<g>
		<rect x="364.454" y="291.682" fill="#E07E55" width="94.154" height="34.238"/>
		<rect x="364.454" y="331.858" fill="#E07E55" width="94.154" height="34.238"/>
		<rect x="364.454" y="372.034" fill="#E07E55" width="94.154" height="36.729"/>
	</g>
	<g>
		<path fill="#FFFFFF" d="M394.412,310.635h23.538c1.009,0,1.834-0.825,1.834-1.834l0,0c0-1.009-0.825-1.834-1.834-1.834h-23.538
			c-1.009,0-1.834,0.825-1.834,1.834l0,0C392.578,309.809,393.403,310.635,394.412,310.635z"/>
		<path fill="#FFFFFF" d="M393.495,350.528h23.538c1.009,0,1.834-0.825,1.834-1.834l0,0c0-1.009-0.825-1.834-1.834-1.834h-23.538
			c-1.009,0-1.834,0.825-1.834,1.834l0,0C391.661,349.703,392.486,350.528,393.495,350.528z"/>
		<path fill="#FFFFFF" d="M393.495,390.421h23.538c1.009,0,1.834-0.825,1.834-1.834v0c0-1.009-0.825-1.834-1.834-1.834h-23.538
			c-1.009,0-1.834,0.825-1.834,1.834l0,0C391.661,389.596,392.486,390.421,393.495,390.421z"/>
	</g>
</g>
<g>
	<g>
		<path fill="#E94849" d="M393.951,263.968v19.557h68.295c4.24,0,7.862-2.708,9.215-6.491c0.364-1.024,0.567-2.133,0.567-3.292
			c0-2.691-1.092-5.137-2.86-6.914c-1.777-1.769-4.223-2.86-6.922-2.86H393.951z"/>
		<path opacity="0.79" fill="#CF2E29" d="M409.239,277.034v6.491h53.007c4.24,0,7.862-2.708,9.215-6.491H409.239z"/>
		<path fill="#A0293C" d="M379.35,263.964l0,19.562l44.778,0c5.399,0,9.781-4.382,9.781-9.781c0-2.694-1.095-5.142-2.862-6.919
			c-1.777-1.766-4.225-2.862-6.919-2.862L379.35,263.964z"/>
		<path fill="#FFFFFF" d="M379.35,267.318l0,12.542l42.14,0c3.465,0,6.271-2.806,6.271-6.271c0-1.732-0.704-3.297-1.833-4.438
			c-1.14-1.129-2.705-1.833-4.438-1.833L379.35,267.318z"/>
	</g>
	<g>
		<path fill="#F8AF3E" d="M392.63,225.092v19.562l68.295,0c5.399,0,9.781-4.382,9.781-9.781c0-2.694-1.095-5.142-2.862-6.919
			c-1.777-1.766-4.225-2.862-6.919-2.862L392.63,225.092z"/>
		<path fill="#FFD730" d="M408.111,231.622v-6.491h53.008c4.24,0,7.862,2.708,9.215,6.491H408.111z"/>
		<path fill="#F08155" d="M379.35,225.092v19.562l44.778,0c5.399,0,9.781-4.382,9.781-9.781c0-2.694-1.096-5.142-2.862-6.919
			c-1.777-1.766-4.225-2.862-6.919-2.862L379.35,225.092z"/>
		<path fill="#FFFFFF" d="M379.35,228.445v12.542l42.14,0c3.465,0,6.271-2.806,6.271-6.271c0-1.732-0.704-3.297-1.833-4.437
			c-1.14-1.129-2.705-1.833-4.438-1.833L379.35,228.445z"/>
	</g>
	<g>
		<path fill="#A2C740" d="M389.102,244.766v19.565h68.295c5.399,0,9.774-4.384,9.774-9.783c0-1.659-0.414-3.224-1.142-4.595
			c-0.457-0.855-1.041-1.642-1.718-2.327c-1.777-1.769-4.223-2.86-6.914-2.86H389.102z"/>
		<path fill="#719B2D" d="M390.909,244.766v5.188h75.12c-0.457-0.855-1.041-1.642-1.718-2.327c-1.777-1.769-4.223-2.86-6.914-2.86
			H390.909z"/>
		<path fill="#719B2D" d="M390.909,264.34v-5.188l75.12,0c-0.457,0.855-1.041,1.642-1.718,2.327c-1.777,1.769-4.223,2.86-6.914,2.86
			L390.909,264.34z"/>
		<path fill="#4E8531" d="M371.228,244.767v19.562l40.985,0c5.399,0,9.781-4.382,9.781-9.781c0-2.694-1.095-5.142-2.862-6.919
			c-1.777-1.766-4.225-2.862-6.919-2.862L371.228,244.767z"/>
		<path fill="#FFFFFF" d="M371.228,248.12v12.542l38.347,0c3.465,0,6.271-2.806,6.271-6.271c0-1.732-0.704-3.297-1.833-4.437
			c-1.14-1.129-2.705-1.833-4.437-1.833L371.228,248.12z"/>
	</g>
</g>
<g>
	<g>
		<path fill="#527F38" d="M350.814,202.548c-8.418,11.464-25.307,13.367-25.307,13.367s-3.24-16.684,5.179-28.148
			c8.418-11.464,25.307-13.367,25.307-13.367S359.232,191.084,350.814,202.548z"/>
		<path fill="#3C6938" d="M315.464,195.693c7.717,7.606,7.296,20.547,7.296,20.547s-12.933,0.609-20.651-6.997
			c-7.717-7.606-7.296-20.547-7.296-20.547S307.747,188.087,315.464,195.693z"/>
		<path fill="#65B25C" d="M334.591,189.939c1.568,14.136-9.571,26.972-9.571,26.972s-13.681-10.083-15.249-24.22
			c-1.568-14.136,9.571-26.972,9.571-26.972S333.023,175.803,334.591,189.939z"/>
	</g>
	<g>
		<polygon fill="#62334B" points="333.546,255.968 304.252,255.968 294.647,213.227 343.151,213.227 		"/>
		<polygon fill="#A1533B" points="344.592,255.968 315.297,255.968 310.975,213.227 354.196,213.227 		"/>
	</g>
</g>
<path fill="#ED8F21" d="M435.797,87.619c1.34,1.151,0.836,8.898,0.8,10.489c-0.282,12.39-7.758,28.665-17.244,36.757
	c0,0-32.343-15.389-32.368-15.401c1.154,0.549,7.441-8.22,7.985-8.996c4.66-6.641,6.825-14.394,8.125-22.302
	c0.589-3.583,1.642-7.844,1.118-11.512C404.213,76.656,426.66,79.788,435.797,87.619z"/>
<path fill="#E9EFF5" d="M433.364,61.201c1.34,1.151,0.836,8.898,0.8,10.489c-0.282,12.39-7.758,28.665-17.244,36.757
	c0,0-32.343-15.389-32.368-15.401c1.154,0.549,7.441-8.22,7.985-8.996c4.66-6.641,6.825-14.394,8.125-22.302
	c0.589-3.583,1.642-7.844,1.118-11.512C401.78,50.238,424.227,53.37,433.364,61.201z"/>
<line fill="none" stroke="#CFD9E6" stroke-width="2" stroke-linecap="square" stroke-miterlimit="10" x1="416.297" y1="96.706" x2="405.122" y2="92.611"/>
<line fill="none" stroke="#CFD9E6" stroke-width="2" stroke-linecap="square" stroke-miterlimit="10" x1="419.979" y1="92.498" x2="399.943" y2="84.625"/>
<line fill="none" stroke="#CFD9E6" stroke-width="2" stroke-linecap="square" stroke-miterlimit="10" x1="421.871" y1="87.216" x2="401.834" y2="79.343"/>
<line fill="none" stroke="#CFD9E6" stroke-width="2" stroke-linecap="square" stroke-miterlimit="10" x1="423.871" y1="82.422" x2="403.834" y2="74.549"/>
<path fill="none" stroke="#CFD9E6" stroke-width="2" stroke-linecap="square" stroke-miterlimit="10" d="M425.609,76.656
	c0,0-16.746-7.878-20.037-7.874"/>
<path fill="none" stroke="#CFD9E6" stroke-width="2" stroke-linecap="square" stroke-miterlimit="10" d="M426.89,71.417
	c0,0-13.656-7.583-20.037-7.874"/>
<g>
	<path fill="#E9EFF5" d="M162.947,10.963c-1.34,1.151-0.836,8.898-0.8,10.489c0.282,12.39,7.758,28.665,17.244,36.757
		c0,0,32.343-15.389,32.368-15.401c-1.154,0.549-7.441-8.22-7.985-8.996c-4.66-6.641-6.825-14.394-8.125-22.302
		c-0.589-3.583-1.642-7.844-1.118-11.512C194.532,0,172.085,3.132,162.947,10.963z"/>
	
		<line fill="none" stroke="#CFD9E6" stroke-width="2" stroke-linecap="square" stroke-miterlimit="10" x1="180.014" y1="46.468" x2="191.189" y2="42.373"/>
	
		<line fill="none" stroke="#CFD9E6" stroke-width="2" stroke-linecap="square" stroke-miterlimit="10" x1="176.332" y1="42.26" x2="196.369" y2="34.387"/>
	
		<line fill="none" stroke="#CFD9E6" stroke-width="2" stroke-linecap="square" stroke-miterlimit="10" x1="174.441" y1="36.978" x2="194.478" y2="29.105"/>
	
		<line fill="none" stroke="#CFD9E6" stroke-width="2" stroke-linecap="square" stroke-miterlimit="10" x1="172.441" y1="32.184" x2="192.477" y2="24.311"/>
	<path fill="none" stroke="#CFD9E6" stroke-width="2" stroke-linecap="square" stroke-miterlimit="10" d="M170.703,26.418
		c0,0,16.746-7.878,20.037-7.874"/>
	<path fill="none" stroke="#3CAA37" stroke-width="6.2351" stroke-miterlimit="10" d="M168.785,19.294c0,0,14.784-7.663,21.674-7.99
		"/>
</g>
<g>
	<g>
		<g>
			<path fill="#1D2040" d="M435.561,188.853L435.561,188.853c-3.268-3.485-2.985-8.862,0.632-12.011l0.409-0.356
				c3.617-3.148,9.197-2.876,12.465,0.609v0c3.268,3.485,2.985,8.862-0.632,12.011l-0.409,0.356
				C444.41,192.611,438.829,192.338,435.561,188.853z"/>
			<path fill="#EE7566" d="M442.501,205.766l-8.595,7.482L409.5,187.22l8.595-7.482c5.955-5.184,14.497-5.873,21.127-2.275
				c1.675,0.906,3.224,2.082,4.583,3.532c3.367,3.591,4.907,8.159,4.677,12.646C448.24,198.127,446.227,202.522,442.501,205.766z"/>
			<path fill="#E96352" d="M434.735,197.484l-8.595,7.482L409.5,187.22l8.595-7.482c5.955-5.184,14.497-5.873,21.127-2.275
				c1.139,2.511,1.635,5.216,1.494,7.896C440.474,189.845,438.462,194.24,434.735,197.484z"/>
		</g>
		<path fill="#A29FB0" d="M434.351,213.148c-2.593,2.315-10.255-1.553-17.115-8.655c-6.859-7.103-10.326-14.74-7.73-17.062
			c2.045-1.835,7.266,0.2,12.757,4.645c1.446,1.181,2.921,2.523,4.351,4.007c1.673,1.734,3.147,3.498,4.376,5.211
			C434.81,206.594,436.31,211.394,434.351,213.148z"/>
		<path fill="#FFFFFF" d="M430.99,201.293c-1.986,2.188-5.364,2.812-8.102,1.322c-3.127-1.702-4.233-5.536-2.463-8.556
			c0.472-0.805,1.104-1.478,1.838-1.985c1.446,1.181,2.921,2.523,4.351,4.007C428.286,197.816,429.761,199.58,430.99,201.293z"/>
	</g>
	<polyline fill="none" stroke="#1D2040" stroke-width="3.485" stroke-miterlimit="10" points="478.969,273.024 501.249,201.106 
		456.131,171.051 446.662,179.101 	"/>
	<g>
		<ellipse fill="#1D2040" cx="455.538" cy="171.478" rx="5.547" ry="5.345"/>
		<ellipse fill="#323D6E" cx="455.538" cy="171.478" rx="2.774" ry="2.673"/>
	</g>
	<path fill="#323D6E" d="M501.397,284.268h-57.398l0,0c0-6.298,5.105-11.403,11.403-11.403h34.591
		C496.292,272.865,501.397,277.971,501.397,284.268L501.397,284.268z"/>
	<rect x="455.834" y="270.014" fill="#1D2040" width="10.355" height="3.136"/>
	<g>
		<ellipse fill="#1D2040" cx="500.805" cy="201.839" rx="7.766" ry="7.483"/>
		<ellipse fill="#323D6E" cx="500.805" cy="201.839" rx="3.883" ry="3.742"/>
	</g>
</g>
<g>
	<rect x="217.309" y="149.434" fill="#5A5769" width="48.299" height="103.888"/>
	<g>
		<g>
			<path fill="#DDDDDD" d="M316.978,219.2H158.207v-96.971c0-3.498,2.836-6.334,6.334-6.334h146.102
				c3.498,0,6.334,2.836,6.334,6.334V219.2z"/>
			<path fill="#DDDDDD" d="M302.067,234.735H170.083c-7.386,0-13.374-5.988-13.374-13.374v-5.123h158.732v5.123
				C315.441,228.748,309.453,234.735,302.067,234.735z"/>
			<path fill="#767785" d="M311.506,122.222v96.981H152.733v-96.981c0-3.497,2.837-6.326,6.334-6.326h146.106
				C308.669,115.896,311.506,118.725,311.506,122.222z"/>
			<path fill="#203566" d="M305.726,122.025v88.235c0,0.319-0.266,0.584-0.592,0.584H159.097c-0.319,0-0.584-0.266-0.584-0.584
				v-88.235c0-0.326,0.266-0.584,0.584-0.584h146.037C305.46,121.441,305.726,121.698,305.726,122.025z"/>
			<path fill="#ABA9C3" d="M311.491,216.237v5.12c0,5.371-3.163,10.005-7.729,12.129c-1.715,0.804-3.634,1.252-5.651,1.252H166.128
				c-7.388,0-13.373-5.993-13.373-13.381v-5.12H311.491z"/>
		</g>
		<g>
			<g>
				<rect x="167.037" y="132.338" fill="#6E8AC5" width="49.327" height="1.708"/>
				<rect x="237.752" y="132.338" fill="#DDDDDD" width="23.356" height="1.708"/>
				<rect x="271.471" y="132.338" fill="#FCC444" width="23.355" height="1.708"/>
				<rect x="263.186" y="132.338" fill="#6E8AC5" width="5.525" height="1.708"/>
				<rect x="218.676" y="132.338" fill="#EA5645" width="16.371" height="1.708"/>
			</g>
			<g>
				<rect x="167.037" y="176.049" fill="#6E8AC5" width="49.327" height="1.708"/>
				<rect x="237.752" y="176.049" fill="#DDDDDD" width="23.356" height="1.708"/>
				<rect x="271.471" y="176.049" fill="#FCC444" width="23.355" height="1.708"/>
				<rect x="263.186" y="176.049" fill="#6E8AC5" width="5.525" height="1.708"/>
				<rect x="218.676" y="176.049" fill="#A29FB0" width="16.371" height="1.708"/>
			</g>
			<g>
				<rect x="245.5" y="161.479" fill="#6E8AC5" width="49.327" height="1.708"/>
				<rect x="200.757" y="161.479" fill="#DDDDDD" width="23.356" height="1.708"/>
				<rect x="167.037" y="161.479" fill="#FCC444" width="23.356" height="1.708"/>
				<rect x="193.153" y="161.479" fill="#6E8AC5" width="5.525" height="1.708"/>
				<rect x="226.817" y="161.479" fill="#A29FB0" width="16.371" height="1.708"/>
			</g>
			<g>
				<rect x="167.037" y="139.623" fill="#EA5645" width="18.498" height="1.708"/>
				<rect x="222.337" y="139.623" fill="#6E8AC5" width="7.941" height="1.708"/>
				<rect x="256.057" y="139.623" fill="#DDDDDD" width="38.77" height="1.708"/>
				<rect x="232.357" y="139.623" fill="#6E8AC5" width="20.939" height="1.708"/>
				<rect x="187.847" y="139.623" fill="#6E8AC5" width="31.785" height="1.708"/>
			</g>
			<g>
				<rect x="167.037" y="183.334" fill="#6E8AC5" width="18.498" height="1.708"/>
				<rect x="222.337" y="183.334" fill="#6E8AC5" width="7.941" height="1.708"/>
				<rect x="256.057" y="183.334" fill="#6E8AC5" width="38.77" height="1.708"/>
				<rect x="232.357" y="183.334" fill="#6E8AC5" width="20.939" height="1.708"/>
				<rect x="187.847" y="183.334" fill="#6E8AC5" width="31.785" height="1.708"/>
			</g>
			<g>
				<rect x="167.037" y="168.764" fill="#EA5645" width="18.498" height="1.708"/>
				<rect x="222.337" y="168.764" fill="#6E8AC5" width="7.941" height="1.708"/>
				<rect x="256.057" y="168.764" fill="#DDDDDD" width="38.77" height="1.708"/>
				<rect x="232.357" y="168.764" fill="#6E8AC5" width="20.939" height="1.708"/>
				<rect x="187.847" y="168.764" fill="#6E8AC5" width="31.785" height="1.708"/>
			</g>
			<g>
				<rect x="167.037" y="146.908" fill="#DDDDDD" width="18.498" height="1.708"/>
				<rect x="187.847" y="146.908" fill="#6E8AC5" width="31.785" height="1.708"/>
			</g>
			<g>
				<rect x="201.135" y="154.193" fill="#DDDDDD" width="18.498" height="1.708"/>
				<rect x="167.037" y="154.193" fill="#6E8AC5" width="31.785" height="1.708"/>
			</g>
		</g>
	</g>
	<path fill="#4B4A60" d="M264.492,256.059h-64.741c-1.986,0-3.597-1.61-3.597-3.597v0c0-1.986,1.61-3.597,3.597-3.597h64.741
		c1.986,0,3.597,1.61,3.597,3.597v0C268.089,254.449,266.479,256.059,264.492,256.059z"/>
</g>
<g>
	<path fill="#F8BAA4" d="M109.544,158.308h-5.326c-4.888,0-8.887-3.999-8.887-8.887V124.38c0-4.888,3.999-8.887,8.887-8.887h5.326
		c4.888,0,8.887,3.999,8.887,8.887v25.041C118.431,154.309,114.432,158.308,109.544,158.308z"/>
	<path fill="#7D4C3A" d="M151.409,90.64c0.239,2.017-9.211,5.427-9.323,7.555l1.538,4.271c-11.604-4.207-1.367,2.205-1.367,2.221
		c-3.446,10.225-2.248,15.883-12.092,19.773c-4.906,1.938-10.289,2.826-15.893,2.429c-7.527-0.524-14.211,1.826-19.673-0.778
		c-1.127-0.524-2.191-1.27-3.207-2.27c-1.921-1.921-3.636-4.033-5.081-6.319c-0.555-0.905-1.096-1.81-1.588-2.763
		c-2.969-5.732-9.042-22.563-8.55-29.47c1.365-19.498,20.046-32.55,41.545-31.073c0.555,0.038,1.096,0.048,1.651,0.079
		c11.607,0.81,21.531,6.971,27.596,15.91c0.318,0.476,0.635,0.968,0.937,1.461c0,0.016,0,0.016,0,0.016
		c1.747,2.842,2.684,15.005,2.684,15.005C150.981,87.972,151.251,89.29,151.409,90.64z"/>
	<path fill="#F9C6B0" d="M150.543,96.88l-0.27,5.351l-0.461,8.876l-0.722,3.147c-0.064,1.397-0.771,8.746-1.025,10.08
		c-2.445,12.559-10.692,15.227-23.49,16.815c-0.381,0.064-0.778,0.095-1.159,0.111c-1.365,0.143-2.747,0.159-4.16,0.095
		c-1.365-0.064-2.699-0.238-4.017-0.492c-2.556-0.461-5.018-1.27-7.288-2.35c0,0-0.016,0-0.032-0.016
		c-5.653-2.667-10.305-7.034-13.322-12.385c-2.302-4.049-3.668-8.653-3.811-13.528c-0.016-0.333-0.016-0.667-0.016-1.016
		c-0.015-0.381,0-0.794,0.032-1.207v-0.207l0.032-0.968l0.143-2.525l0.428-8.717l0.016-0.079v-0.016l0.08-1.619l0.063-1.254
		l0.064-1.159l0.016-0.302c0.127-2.016,0.524-3.954,1.127-5.811c0.381-1.318,0.873-2.588,1.429-3.811
		c0.08-0.191,0.143-0.365,0.238-0.556c0.445-1,0.969-2.001,1.54-2.938c0-0.016,0-0.016,0-0.016c2.159-3.604,5.049-6.716,8.479-9.114
		c0.683-0.492,1.397-0.952,2.112-1.381c4.986-2.922,10.86-4.494,17.037-4.176c5.145,0.27,8.947,1.81,13.091,4.303
		c2.508,1.509,4.779,3.366,6.732,5.51c2.779,3.017,4.589,6.573,5.922,10.495c0.08,0.222,0.143,0.445,0.207,0.667
		c0.397,1.286,0.667,2.604,0.825,3.954C150.623,92.656,150.655,94.752,150.543,96.88z"/>
	<path fill="#7D4C3A" d="M139.737,70.347c6.278,17.297-10.25,15.888-11.019,23.832c-0.086,0.893-0.404,2.207-0.641,8.713
		l-1.263,4.07c-0.365,1.27-1.541,2.144-2.859,2.144c-1.651,0-2.985-1.334-2.985-2.985v-0.079l0.143-6.478l-3.224,8.543
		c-2.318,6.16-5.843,11.734-10.289,16.433c-3.7,3.89-8.034,7.193-12.845,9.702c0,0-20.165-11.988-20.165-39.362
		c0-2.175,0.127-4.446,0.397-6.812c0.254-2.128,0.603-4.113,1.08-5.97c8.351-34.011,50.143-22.404,54.16-20.895
		C134.452,62.79,139.737,70.347,139.737,70.347z"/>
	<path fill="#F9C6B0" d="M154.099,115.211c0.005,0.056-0.006,0.448-0.006,0.448c-0.055,1.871-1.676,3.357-5.689,3.242l0.562-14.606
		C152.224,109.264,153.804,112.152,154.099,115.211z"/>
	<path opacity="0.2" fill="#1D2040" d="M107.602,124.539c-3.7,3.89-8.034,7.193-12.845,9.702c0,0-20.165-11.988-20.165-39.362
		c0-2.175,0.127-4.446,0.397-6.812c0.254-2.128,0.603-4.113,1.08-5.97c0.889,5.208,3.239,13.099,9.241,22.848
		C94.439,119.776,104.348,123.634,107.602,124.539z"/>
	<path fill="#7D4C3A" d="M148.332,123.423l-0.266,10.22c0,8.713-10.319,12.214-17.979,11.386l-12.207-1.32l1.229-10.579
		l3.331-20.244l-5.382-15.119l11.084,4.601l-0.001,0.017c-0.838,12.013,7.77,21.724,19.8,21.168L148.332,123.423z"/>
	<g>
		<g>
			<path fill="#803A55" d="M145.891,467.024l47.176,0.502c2.813,0.03,5.118-2.226,5.148-5.04l0,0
				c0.023-2.167-1.327-4.111-3.365-4.846l-23.254-8.391l-25.519,0.351L145.891,467.024z"/>
			<path fill="#1D2040" d="M193.998,468.846l-47.76-0.154l0.011-3.423l51.183,0.165l0,0
				C197.425,467.325,195.888,468.852,193.998,468.846z"/>
		</g>
		<g>
			
				<line fill="none" stroke="#1D2040" stroke-width="1.1328" stroke-linecap="round" stroke-miterlimit="10" x1="170.996" y1="456.147" x2="176.555" y2="450.243"/>
			
				<line fill="none" stroke="#1D2040" stroke-width="1.1328" stroke-linecap="round" stroke-miterlimit="10" x1="175.049" y1="457.872" x2="180.609" y2="451.968"/>
			
				<line fill="none" stroke="#1D2040" stroke-width="1.1328" stroke-linecap="round" stroke-miterlimit="10" x1="178.929" y1="460.176" x2="185.188" y2="453.482"/>
		</g>
		<g>
			<path fill="#1D1C2E" d="M144.283,451.525c2.737-46.018,1.999-88.564-1.586-97.18c-3.677-5.35-32.336-16.946-60.98-18.197
				l13.404-29.263c37.57,1.888,64.425,15.984,73.818,32.095c3.966,6.8,7.41,20.516,5.552,67.44
				c-0.973,24.577-2.173,43.831-2.173,43.831L144.283,451.525z"/>
		</g>
		<g>
			<path fill="#A1533B" d="M187.897,468.197l47.178,0.326c2.813,0.019,5.11-2.245,5.129-5.059l0,0
				c0.015-2.167-1.342-4.106-3.383-4.833l-23.286-8.304l-25.518,0.446L187.897,468.197z"/>
			<path fill="#1D2040" d="M236.011,469.84l-48.519,0.024l-0.002-3.423l51.942-0.026l0,0
				C239.433,468.306,237.902,469.839,236.011,469.84z"/>
		</g>
		<g>
			
				<line fill="none" stroke="#1D2040" stroke-width="1.1328" stroke-linecap="round" stroke-miterlimit="10" x1="212.962" y1="457.227" x2="218.499" y2="451.302"/>
			
				<line fill="none" stroke="#1D2040" stroke-width="1.1328" stroke-linecap="round" stroke-miterlimit="10" x1="217.022" y1="458.937" x2="222.559" y2="453.013"/>
			
				<line fill="none" stroke="#1D2040" stroke-width="1.1328" stroke-linecap="round" stroke-miterlimit="10" x1="220.91" y1="461.227" x2="227.144" y2="454.509"/>
		</g>
		<g>
			<path fill="#1D1C2E" d="M186.195,451.525c2.738-46.018,1.999-88.564-1.586-97.18c-3.677-5.35-32.336-16.946-60.98-18.197
				l13.404-29.263c37.57,1.888,64.425,15.984,73.818,32.095c3.966,6.8,7.41,20.516,5.552,67.44
				c-0.973,24.577-2.173,43.831-2.173,43.831L186.195,451.525z"/>
		</g>
		<path fill="#1D1C2E" d="M145.823,315.305c0,5.154-1.835,9.877-4.882,13.559c-3.897,4.723-9.81,7.737-16.425,7.737H88.709
			c-1.065,0-2.107-0.079-3.126-0.238c-2.628-0.374-5.097-1.246-7.318-2.503c-0.396-0.215-0.782-0.453-1.155-0.702
			c-5.834-3.794-9.696-10.376-9.696-17.852l0.657-11.362l77.13-0.668L145.823,315.305z"/>
		<g>
			<g>
				<g>
					<path fill="#F8BAA4" d="M170.422,254.622l18.456-2.95c1.348-0.215,2.274-1.495,2.059-2.842l0,0
						c-0.215-1.348-1.495-2.274-2.842-2.059l-18.456,2.95c-1.348,0.215-2.274,1.494-2.059,2.842l0,0
						C167.795,253.91,169.074,254.837,170.422,254.622z"/>
					<path fill="#F8BAA4" d="M176.299,259.612l14.819-2.369c1.348-0.215,2.274-1.495,2.059-2.842l0,0
						c-0.215-1.348-1.495-2.274-2.842-2.059l-14.819,2.369c-1.348,0.215-2.274,1.494-2.059,2.842l0,0
						C173.672,258.901,174.951,259.827,176.299,259.612z"/>
					<path fill="#F8BAA4" d="M172.872,266.083l17.54-2.804c1.348-0.215,2.274-1.495,2.059-2.842l0,0
						c-0.215-1.348-1.494-2.274-2.842-2.059l-17.54,2.804c-1.348,0.215-2.274,1.495-2.059,2.842l0,0
						C170.246,265.372,171.525,266.298,172.872,266.083z"/>
				</g>
				<path fill="#F8BAA4" d="M178.389,249.85c-0.198,0.023-2.462-0.008-4.915-0.049c-4.236-0.071-8.428,0.869-12.229,2.739
					l-7.28,3.581c0,0,4.169,12.371,4.744,12.475c14.035,2.537,18.849-3.835,18.849-3.835L178.389,249.85z"/>
			</g>
			<rect x="161.293" y="249.801" fill="#FFFFFF" width="6.23" height="20.248"/>
		</g>
		<g>
			<path fill="#1D1C2E" d="M120.466,272.246c-14.689,0-28.118-8.574-34.289-21.927l-0.304-0.659l-19.226-58.71l23.683-7.756
				l18.735,57.213c2.223,4.269,6.694,6.97,11.528,6.917l40.841-0.404l0.247,24.92l-40.841,0.404
				C120.716,272.245,120.59,272.246,120.466,272.246z"/>
		</g>
		<g>
			<g>
				<path fill="#F8BAA4" d="M253.725,248.039c-1.527-2.722-3.82-4.949-6.619-6.329c-0.022-0.011-0.044-0.022-0.066-0.032
					c-3.806-1.86-8.002-2.785-12.238-2.703l-8.111,0.157c0,0-2.055,17.598-1.95,17.023c0.21-1.143,19.83-0.849,28.819-0.654
					c1.948,0.042,3.2-2.049,2.247-3.748L253.725,248.039z"/>
			</g>
			<rect x="221.782" y="237.807" fill="#FFFFFF" width="7.741" height="20.739"/>
		</g>
		<g>
			<path fill="#25253A" d="M183.901,260.918c-14.688,0-28.118-8.574-34.289-21.927l-27.685-59.908l22.622-10.454l27.685,59.907
				c2.117,4.581,6.699,7.521,11.794,7.46l40.841-0.404l0.247,24.92l-40.841,0.404C184.15,260.918,184.025,260.918,183.901,260.918z"
				/>
		</g>
		<path fill="#25253A" d="M152.428,190.803l-0.462,52.311l-0.585,66.605c0,0-1.437,1.606-5.716,3.856
			c-3.713,1.957-9.553,4.403-18.449,6.711c-10.366,2.692-24.965,3.108-37.438,2.803c-13.761-0.338-24.926-1.548-24.926-1.548
			l0.286-130.738c0-18.397,13.318-33.699,30.844-36.781c2.107-0.364,4.272-0.553,6.49-0.553h12.623
			C135.709,153.469,152.428,170.189,152.428,190.803z"/>
		<g>
			<g>
				<rect x="94.19" y="362.455" fill="#B1AEC1" width="12.603" height="72.342"/>
				<path fill="#726F82" d="M94.19,366.533v15.835l12.603-4.597v-10.72C103.639,366.91,97.569,366.672,94.19,366.533z"/>
			</g>
			<path fill="#2E2E3B" d="M139.261,368.706H63.805c-3.868,0-7.032-3.164-7.032-7.032l0,0c0-3.868,3.164-7.032,7.032-7.032h75.456
				c3.868,0,7.032,3.164,7.032,7.032l0,0C146.293,365.542,143.129,368.706,139.261,368.706z"/>
			<g>
				<g>
					<path fill="#2E2E3B" d="M153.903,458.155h-7.884c0-8.878-7.663-16.101-17.081-16.101H71.5c-9.419,0-17.081,7.223-17.081,16.101
						h-7.884c0-12.976,11.199-23.532,24.965-23.532h57.438C142.704,434.623,153.903,445.179,153.903,458.155z"/>
				</g>
				<rect x="91.209" y="423.476" fill="#2E2E3B" width="18.395" height="11.324"/>
			</g>
			<g>
				<ellipse fill="#1D2040" cx="50.176" cy="465.341" rx="6.549" ry="6.173"/>
				<path fill="#1E284B" d="M59.62,464.796H41.698v-1.632c0-4.621,3.746-8.366,8.366-8.366h1.189c4.621,0,8.366,3.746,8.366,8.366
					V464.796z"/>
				<ellipse fill="#1D2040" cx="150.331" cy="465.341" rx="6.549" ry="6.173"/>
				<path fill="#1E284B" d="M159.775,464.796h-17.922v-1.632c0-4.621,3.746-8.366,8.366-8.366h1.189
					c4.621,0,8.366,3.746,8.366,8.366V464.796z"/>
			</g>
			<rect x="95.56" y="436.923" fill="#2E2E3B" width="10.435" height="22.294"/>
			<g>
				<ellipse fill="#1D2040" cx="100.998" cy="465.341" rx="6.549" ry="6.173"/>
				<path fill="#1E284B" d="M110.442,464.796H92.52v-1.632c0-4.621,3.746-8.366,8.366-8.366h1.189c4.621,0,8.366,3.746,8.366,8.366
					V464.796z"/>
			</g>
		</g>
		<path fill="#A0293C" d="M0.148,226.335l16.877,121.832c1.026,7.409,7.245,12.999,14.722,13.232l61.59,0.706L59.089,208.908
			l-43.718-0.024C6.05,208.87-1.131,217.101,0.148,226.335z"/>
		<path fill="#E94849" d="M166.069,362.104h-85.62c-7.3,0-13.272-5.972-13.272-13.272v0c0-7.3,5.972-13.272,13.272-13.272h85.62
			c7.3,0,13.272,5.972,13.272,13.272v0C179.341,356.132,173.368,362.104,166.069,362.104z"/>
		<path fill="#1D1C2E" d="M85.31,186.869c-1.658,24.016,3.017,110.637,4.468,136.22c-13.761-0.338-24.926-1.548-24.926-1.548
			l0.286-130.738c0-18.397,13.318-33.699,30.844-36.781C95.981,154.022,87.261,158.581,85.31,186.869z"/>
		<polygon fill="#FFFFFF" points="128.235,155.732 89.721,155.732 89.721,144.971 128.235,149.523 		"/>
		<path fill="#E94849" d="M66.066,345.339l-17.89-124.944c-0.797-5.566,3.382-10.735,9.288-11.487l0,0
			c5.905-0.751,11.389,3.188,12.186,8.755l17.89,124.944c0.797,5.566-3.382,10.735-9.288,11.487l0,0
			C72.347,354.845,69.291,359.019,66.066,345.339z"/>
		<path fill="#1D1C2E" d="M151.966,243.114l-0.585,66.605c0,0-1.437,1.606-5.716,3.856l-8.87-100.382
			C136.795,213.194,144.924,233.509,151.966,243.114z"/>
	</g>
</g>
<g>
	<g>
		<path fill="#EA5248" d="M323.972,222.77v32.683H296.67V222.77c0-1.438,1.172-2.61,2.61-2.61h22.082
			C322.8,220.159,323.972,221.331,323.972,222.77z"/>
		<g>
			<path fill="#EA5645" d="M297.007,249.86c-0.357-0.205-8.738-5.114-9.486-13.712c-0.285-3.278,0.956-5.31,2.047-6.436
				c3-3.098,7.985-2.92,8.543-2.89l-0.218,3.99c-1.012-0.047-3.992,0.159-5.463,1.688c-0.75,0.78-1.054,1.86-0.928,3.303
				c0.569,6.543,7.426,10.554,7.495,10.594L297.007,249.86z"/>
		</g>
	</g>
	<path fill="#EA5645" d="M311.213,255.453H296.67V222.77c0-1.438,1.172-2.61,2.61-2.61h0.879c0.04,1.705,0.506,14.743,4.168,24.133
		C307.511,252.469,310.348,254.88,311.213,255.453z"/>
	<path opacity="0.79" fill="#CF2E29" d="M287.52,236.142c0.666,7.738,7.525,12.492,9.15,13.505v5.807h14.543
		c-0.866-0.573-3.702-2.983-6.885-11.161c-3.663-9.389-4.129-22.428-4.169-24.133h-0.879c-1.438,0-2.61,1.172-2.61,2.61v4.062
		c-1.838,0.133-4.968,0.679-7.099,2.877C288.479,230.842,287.241,232.866,287.52,236.142z M292.435,232.493
		c1.065-1.092,2.917-1.518,4.235-1.638v13.824c-2.064-1.758-4.808-4.834-5.168-8.883
		C291.382,234.358,291.675,233.279,292.435,232.493z"/>
</g>
</svg>
