<?xml version="1.0" encoding="utf-8"?>
<!-- Generator: Adobe Illustrator 17.0.0, SVG Export Plug-In . SVG Version: 6.00 Build 0)  -->
<!DOCTYPE svg PUBLIC "-//W3C//DTD SVG 1.1//EN" "http://www.w3.org/Graphics/SVG/1.1/DTD/svg11.dtd">
<svg version="1.1" id="LOGO" xmlns="http://www.w3.org/2000/svg" xmlns:xlink="http://www.w3.org/1999/xlink" x="0px" y="0px"
	 width="1224px" height="792px" viewBox="0 0 1224 792" enable-background="new 0 0 1224 792" xml:space="preserve">
<circle id="XMLID_6_" fill="#00AEEF" cx="612" cy="395.876" r="365.634"/>
<path id="XMLID_4_" opacity="0.15" fill="#010101" enable-background="new    " d="M977.138,376.541L696.282,157.656
	c-62.715,47.842-48.586,174.017-18.839,247.144c-196.575,32.473-148.98,64.946-239.459,219.132l203.02,137.577
	C968.214,699.042,977.634,447.932,977.138,376.541z"/>
<g id="XMLID_1_">
	<path id="XMLID_5_" fill="#FFFFFF" d="M641.003,376.541h-58.006c-79.82,0-145.014,52.552-145.014,116.755v130.637
		c52.304,26.028,111.549,40.654,174.017,40.654s121.465-14.625,174.017-40.654V493.296
		C786.017,429.093,720.575,376.541,641.003,376.541z"/>
	<circle id="XMLID_122_" fill="#FFFFFF" cx="612" cy="259.29" r="132.124"/>
	<g>
		<path fill-rule="evenodd" clip-rule="evenodd" fill="#3575BA" d="M683.996,447.652L683.996,447.652
			c3.459,0,6.289,2.83,6.289,6.288v25.743c0,3.459-2.83,6.288-6.288,6.288h0c-3.459,0-6.288-2.83-6.288-6.288v-25.743
			C677.707,450.482,680.537,447.652,683.996,447.652z"/>
		<path fill-rule="evenodd" clip-rule="evenodd" fill="#E72325" d="M709.038,450.796L709.038,450.796
			c1.729,2.996,0.694,6.861-2.302,8.59l-12.862,7.426l12.862,7.426c2.995,1.729,4.031,5.595,2.302,8.59l0,0
			c-1.729,2.996-5.595,4.031-8.59,2.302l-22.294-12.871c-0.489-0.282-0.925-0.622-1.306-1.004l-0.058-0.058l-0.008-0.009
			c-0.352-0.363-0.666-0.773-0.929-1.23l0,0c-0.571-0.989-0.841-2.073-0.838-3.144c-0.003-1.071,0.266-2.155,0.838-3.144l0,0
			c0.263-0.457,0.577-0.867,0.929-1.23l0.008-0.009l0.058-0.059c0.381-0.383,0.817-0.722,1.306-1.005l22.294-12.871
			C703.444,446.765,707.309,447.801,709.038,450.796z"/>
		<path fill-rule="evenodd" clip-rule="evenodd" fill="#AF4B50" d="M690.284,479.261l-12.13-7.003
			c-0.154-0.089-0.303-0.184-0.447-0.284V461.65c0.144-0.1,0.293-0.195,0.447-0.284l12.13-7.003V479.261z"/>
	</g>
</g>
</svg>
