<?xml version="1.0" encoding="utf-8"?>
<!-- Generator: Adobe Illustrator 19.0.0, SVG Export Plug-In . SVG Version: 6.00 Build 0)  -->
<svg version="1.1" id="LOGO" xmlns="http://www.w3.org/2000/svg" xmlns:xlink="http://www.w3.org/1999/xlink" x="0px" y="0px"
	 viewBox="0 0 150 157.2" style="enable-background:new 0 0 150 157.2;" xml:space="preserve">
<style type="text/css">
	.Arched_x0020_Green{fill:url(#SVGID_1_);stroke:#FFFFFF;stroke-width:0.25;stroke-miterlimit:1;}
	.st0{fill-rule:evenodd;clip-rule:evenodd;fill:#66B26F;}
	.st1{fill-rule:evenodd;clip-rule:evenodd;fill:#00AEEF;}
	.st2{fill-rule:evenodd;clip-rule:evenodd;fill:#0089CF;}
	.st3{fill:url(#XMLID_96_);}
</style>
<linearGradient id="SVGID_1_" gradientUnits="userSpaceOnUse" x1="-979.4687" y1="1009.3453" x2="-978.7616" y2="1008.6382">
	<stop  offset="0" style="stop-color:#20AC4B"/>
	<stop  offset="0.9831" style="stop-color:#19361A"/>
</linearGradient>
<g id="XMLID_860_">
	<path id="XMLID_858_" class="st0" d="M48.7,57.9L48.7,57.9c4.3,0,7.7,3.5,7.7,7.7v31.7c0,4.3-3.5,7.7-7.7,7.7h0
		c-4.3,0-7.7-3.5-7.7-7.7V65.7C41,61.4,44.5,57.9,48.7,57.9z"/>
	<path id="XMLID_857_" class="st1" d="M79.5,61.8L79.5,61.8c2.1,3.7,0.9,8.4-2.8,10.6l-15.8,9.1l15.8,9.1c3.7,2.1,5,6.9,2.8,10.6
		l0,0c-2.1,3.7-6.9,5-10.6,2.8L41.5,88.2c-0.6-0.3-1.1-0.8-1.6-1.2l-0.1-0.1l0,0c-0.4-0.4-0.8-1-1.1-1.5l0,0c-0.7-1.2-1-2.5-1-3.9
		c0-1.3,0.3-2.7,1-3.9l0,0c0.3-0.6,0.7-1.1,1.1-1.5l0,0l0.1-0.1c0.5-0.5,1-0.9,1.6-1.2L69,59C72.6,56.8,77.4,58.1,79.5,61.8z"/>
	<path id="XMLID_855_" class="st2" d="M56.5,96.8l-14.9-8.6c-0.2-0.1-0.4-0.2-0.5-0.3V75.2c0.2-0.1,0.4-0.2,0.5-0.3l14.9-8.6V96.8z"
		/>
</g>
<linearGradient id="XMLID_96_" gradientUnits="userSpaceOnUse" x1="108.2612" y1="135.5728" x2="-2.521" y2="24.7906">
	<stop  offset="0" style="stop-color:#3AB0E5"/>
	<stop  offset="0.5328" style="stop-color:#59B1A5"/>
	<stop  offset="1" style="stop-color:#66B26F"/>
</linearGradient>
<path id="XMLID_89_" class="st3" d="M149.2,77c-3.6-15.6-19.9-29.4-28.9-36.1C88.1,14.7,39-7.3,21,2.3C8,9.1,2.4,37.1,0.7,65.2
	c0,0,0,0,0,0c0,0-0.3,4.2-0.5,7.6c-0.6,17.3,0.1,33.9,1.4,44.7c0,0.3,0.1,0.7,0.1,1c0.9,5.9,2.2,11.6,3.9,16.8
	c6.1,16.8,15.7,20.4,15.7,20.4c0.9,0.4,2,0.8,3.2,1c11.1,2.2,24-2.2,34.3-5.6c5-1.7,9.7-3.3,14.2-5.4c0,0,0,0,0,0
	c11.5-5,35.7-16.6,50.5-27.3c14.3-10.6,24.6-22.1,26.2-32.8c0.2-1,0.2-2.1,0.2-3.1C150,80.7,149.7,78.8,149.2,77z M37.9,116.7
	c-11.2-7.9-18.6-21-18.6-35.8c0-17.8,10.6-33.1,25.8-39.9c5.5-2.5,11.6-3.8,17.9-3.8c22.5,0,41,16.9,43.5,38.7
	c0.2,1.7,0.3,3.4,0.3,5.1c0,24.2-19.6,43.8-43.8,43.8C53.7,124.7,45,121.7,37.9,116.7z"/>
</svg>
