<?xml version="1.0" encoding="utf-8"?>
<!-- Generator: Adobe Illustrator 21.0.0, SVG Export Plug-In . SVG Version: 6.00 Build 0)  -->
<svg version="1.1" id="Слой_1" xmlns="http://www.w3.org/2000/svg" xmlns:xlink="http://www.w3.org/1999/xlink" x="0px" y="0px"
	 viewBox="0 0 144 144" style="enable-background:new 0 0 144 144;" xml:space="preserve">
<style type="text/css">
	.st0{fill-rule:evenodd;clip-rule:evenodd;fill:#585077;}
	.st1{fill-rule:evenodd;clip-rule:evenodd;fill:#C8472C;}
	.st2{fill-rule:evenodd;clip-rule:evenodd;fill:#E2E2AF;}
	.st3{fill-rule:evenodd;clip-rule:evenodd;fill:#E95C4C;}
	.st4{fill-rule:evenodd;clip-rule:evenodd;fill:#F8B539;}
	.st5{fill-rule:evenodd;clip-rule:evenodd;fill:#122540;}
	.st6{fill-rule:evenodd;clip-rule:evenodd;fill:#FCD440;}
	.st7{fill-rule:evenodd;clip-rule:evenodd;fill:#BFC79F;}
	.st8{fill-rule:evenodd;clip-rule:evenodd;fill:#0F0831;}
	.st9{fill-rule:evenodd;clip-rule:evenodd;fill:#B7412C;}
	.st10{fill-rule:evenodd;clip-rule:evenodd;fill:#B7442C;}
	.st11{fill-rule:evenodd;clip-rule:evenodd;fill:#343857;}
	.st12{fill-rule:evenodd;clip-rule:evenodd;fill:#98C5E3;}
	.st13{fill-rule:evenodd;clip-rule:evenodd;fill:#494065;}
	.st14{fill-rule:evenodd;clip-rule:evenodd;fill:#685B89;}
	.st15{fill-rule:evenodd;clip-rule:evenodd;fill:#00A4CD;}
	.st16{fill-rule:evenodd;clip-rule:evenodd;fill:#00284F;}
	.st17{fill-rule:evenodd;clip-rule:evenodd;fill:#79A7C9;}
	.st18{fill-rule:evenodd;clip-rule:evenodd;fill:#84B7D9;}
	.st19{fill-rule:evenodd;clip-rule:evenodd;fill:#15163D;}
</style>
<path class="st0" d="M74.3,123c26.6,0,48.3-21.7,48.3-48.3S101,26.3,74.3,26.3S26,48,26,74.6S47.7,123,74.3,123z"/>
<path class="st1" d="M61.9,35.1C67,30.2,72,25.3,77.1,20.4c-2.4-2.6-6.2-7.2-5-10.9c1.7-4.9,14.7-19.2,34.7,12.3
	C97.4,8.4,85.1,9.2,88,15c1.1,2.8,4.8,9.2,4.2,13.2c-3.5,21.8,0.7,8,1.5,16.7c0,0.4-0.8,2.2-0.8,2.7c-5.3,5.7-10.5,9.8-18.2,11.7
	c-2.7-0.6-6.6-0.4-9.3-1C64.2,50.5,63,42.8,61.9,35.1z"/>
<path class="st2" d="M71,30.2c-0.7-0.1-1.4-0.1-2.1-0.2c-12-1.3-21.4,1.9-28.1,9.9c-4.1,1.3-6.9,3.6-7.6,7.3c-1,0.6-2.3,0.9-2.8,1.8
	c-0.6,1.3-1,2.7-1.9,3.2c-3.8,2-5.2,3.6-6.5,5.8c-1.7,3.7,0.2,6.3,3.8,8c1.2,0.5,3.1,0,4.4-0.2c0.1-1.8-0.2-3.5-0.1-5.3
	c2.6-0.5,5.3-1,7.9-1.5c1.7-0.5,3.1-1.3,4.4-2.1c2.8,1.4,4.8,3.2,6.1,4.9c7.9,2.9,13.8-0.4,18.5-5.8c0.3-3.6,1.2-6,3.1-11.4
	c0.7-1,1.8-1.8,3.9-2.3c1.2-0.1,2.4-0.4,3.6-0.8c1.7,0.3,3.3,0.5,5,0.2c4.7-0.8,9.1-2.1,13.7-3.4c-0.6-2-1.1-3.9-1.7-5.9
	c-3.7,0.3-7.7-2-11.4-2.4c-1.7-0.2-3.4,0.7-5,1.8C75.7,31.3,73.4,30.8,71,30.2z"/>
<path class="st3" d="M68,30c-1.7,3.3-3.9,9.7-7.2,12.5c2.4-5.4,0.7-8.8-1.2-10.4c-2-1.6-5.9-0.8-6.1-0.7c-3.4,0-12,6.4-2,13.3
	c-4.7-1.3-6.8-2.2-9.2-7.3c6.3-6.1,13.3-9.1,22.4-9c6.4-2.4,8.1-3.6,9.8-8.1c0.5-1.5-1-4.5-1-4.5c0.2,0.3,2.9,3.1,3,3.1
	c0.6,0.4,2,4.1,0.3,4.9C68.9,27.2,71.6,28.5,68,30z"/>
<path class="st4" d="M58.7,33.5c-3.2,0.1-5.6,1-8.8,1.1c-3.2,1.5-0.3,8.3,4.5,9.2c0.3,0.1,1.8,1.4,2.1,1.4c0.4-0.1,0-1.7,0.4-1.8
	c1.6-1.6,4.2-5.7,2.2-9.2C57.7,31.6,59.1,33.8,58.7,33.5z"/>
<path class="st5" d="M58.8,34.9c-3.2-0.2-6.4-0.3-9.6-0.5c-0.4-1.1-0.3-2.3-0.7-3.3c-0.4-2-0.1-3.7,1.3-5.8c0.3-0.3,1.1-1.4,1-0.9
	c-1.3,3.8,1.1-0.9,2.2-0.8c0.1,0-2.5,3.7,2.3-0.6c0.1-0.1-0.5,1.5,0,1.6c0.9,0.1,3.4-0.4,4.4,0.5c0.1,0.1-2.1,0.8,0.1,0.9
	c0.6,0-0.9,1.6,0.7,0.9c0.3-0.1-0.7,1.3-0.7,1.7c0.2,0.8,0.4,1.7,0.1,2.7C59.4,32.4,59.2,33.7,58.8,34.9z"/>
<path class="st6" d="M50.1,29.8c-1.5,1.1-0.9,5.5-0.7,8.1c0,0.5,2.3,4.3,2.8,4.4c1.1,0.3,2.5,0.2,3.7,0c0.6-0.1,2.8-3.9,2.8-4.5
	c0-2.8-0.2-5.7-0.4-8.6c-0.8,0.3-2.9,0.8-3.4,0.7c-0.8-0.1-1.3-0.4-2-0.5C51.6,29.4,50.7,29.4,50.1,29.8z"/>
<path class="st7" d="M27.6,66.3c1.1-0.1,1.8-0.3,2.5-0.4c0.1-1.8-0.2-3.5-0.1-5.3l5.3-1c1.8-1.6,0.6-1.6,0.1-2.3
	C25.3,56.6,25.8,62.8,27.6,66.3z"/>
<path class="st4" d="M34.3,57.7c-1.2,2.5,0.2,6.2-1,8.6c-0.8,0-2.4-0.4-3.2-0.5c-0.6-0.7,0-1-0.5-2C28,61.1,30.7,57.3,34.3,57.7z"/>
<path class="st7" d="M89.5,40.3c2.2-0.6,4.4-1.2,6.7-1.9l-1.7-5.9c-1.7,0.1-3.5-0.3-5.2-0.8c-0.9,1.2-1.2,2.3-1,3.5
	c0.2,0.9,0.9,1.8,1.1,2.8c0.1,0.3-0.1,0.7-0.1,1.1C89.3,39.5,89.4,40,89.5,40.3z"/>
<path class="st6" d="M34.3,66.8c-0.8-0.3-1.8-1.2-2.3-1.4c-0.7-0.4-1.1-0.3-1.4-0.9c0.1-1.2-0.1-0.7,0.3-1.8c0.1-0.4-0.3-1.2,0-1.5
	c0.5-0.4,0.8-1.3,1.3-2.4c0.2-0.6,0.8-1,1.7-1.4c0.6-0.3,0.9-1.1,1.5-1.1c0.7,0,2.4,2.2,3.8,3.3c0.2,0.1,0.8,0.1,0.9,0.2
	c0.4,0.3,0.7,0.7,1.2,1.1c0.4,0.4-1,1.6-1.7,2.3c-0.2,0.2-0.6-0.1-0.8,0.1c-0.9,0.8-1.6,1.5-2.4,1.3c-0.5-0.1-0.8,0.8-1,0.9
	C35.4,66.2,34.8,67,34.3,66.8z"/>
<path class="st4" d="M98.4,40.2c-0.3,0.1-1-0.4-1.2-0.6c-0.2-0.3-0.5-0.6-0.7-0.9c-1.2,0.2-2.2,0.4-3.4,0.6c-0.9-0.5,0-1.5-0.5-2
	c-1.5-1.6-1.5-4,0.4-4.9c1,0,2,0.1,3-0.1c1.4-0.3,2.3-0.8,3.7-1.3c0.6-0.1,1.3,0.1,1.9,0.3c0.4,0.2,0.2,0.9,0.2,1.4
	c0.6,0.2,1.6,0.2,1.8,0.8c0.1,0.2-0.4,1.1-0.3,1.6c0,0.1,1.3,0.8,1,1.2c-0.7,1-0.3,2.5-0.7,2.6c-1.2,0.3-2.4,1.7-2.5,1.7
	C100.2,40.7,99.5,39.8,98.4,40.2z"/>
<path class="st6" d="M99,31.3c-1.9,1.1-2.6,2.1-3.1,3.2c-1.6,0.7-1.9,1.7-0.8,3c0.5,0.4,0.9,0.8,1.4,1.2l1.3,1.4
	c0.2,0.1,0.4,0.2,0.6,0.2c1.1-0.4,1.8,0.5,2.6,0.5c0.2,0,1.4-1.4,2.5-1.7c0.4-0.1,0-1.6,0.7-2.6c0.3-0.4-0.9-1.1-1-1.2
	c-0.1-0.5,0.4-1.5,0.3-1.6c-0.2-0.6-1.2-0.5-1.8-0.8c0-0.5,0.2-1.3-0.2-1.4c-0.6-0.2-1.3-0.4-1.9-0.3C99.4,31.2,99.2,31.2,99,31.3z"
	/>
<path class="st8" d="M87.9,57.8c-0.8-1-1.5-2-2.3-2.9c-0.3-0.4-1.1-0.4-1.5-0.8c-0.8-0.7-1.2-1.9-0.8-2.7c0.7-1.3,0.5-3.2,1-5.1
	c0.2-0.9,1-2,1.3-2.8c0.6-1.4,2-1.7,3.6-2.1c0.6-0.2,1.2-0.7,1.8-0.8c1.2-0.2,2.7,0.3,3.6,1.2c0.8,0.7,1.3,1.9,2,2.7
	c0.7,0.9,1.8,1.3,2.6,2.1c0.5,0.5,0.6,1.4,1,2c1.5,0.3,2.5,1.5,4,1.8c1.9,0.4,2.2,1.4,3,3.4c0.8,2.1,3,2.3,2.9,3.4
	c0.1,0.5,0.1,0.7,0.1,1.2C102.8,58.1,95.3,57.9,87.9,57.8z"/>
<path class="st1" d="M95.3,54.5c-5.4,1.3-10.7,2.9-16.1,4.2c-1.5,4-7,10.5-6.8,12.7c0.9,11.4,11.8,9,19.8,19.4
	c5.1,3.4,4.7,9.9-3.9,13.6c10.8-1.3,25.7-2.2,28.2-11.7c0.2-0.9,0.5-5.4-2.9-10.6c-0.6-0.8,2.5-2,2.5-3.1c0-4.9-5.1-7.1-5.8-10
	c-0.2-0.9,3.5-2.5,3.6-3.4c0.4-3.1-3.4-6.7-4.6-8.7c-0.1-0.2-1.4-0.6-2.5-1.2c-1.9-1-4.2-2.4-5.6-2.6C98.2,52.8,98.2,54.9,95.3,54.5
	z"/>
<path class="st9" d="M113.4,66c0,0.1-0.1,0.3-0.2,0.6c-0.4,0.7-2.3,1.3-2.9,2.4c-2.9-2.8-11.4-2.3-14.5-8.1
	C100.3,64.3,109.2,61.5,113.4,66z"/>
<path class="st9" d="M106.8,101.3c-4-20.1-21.3-21.6-23.6-21.5c1,0.6,1.2,5.9,2.1,6.4c12,6.3,11.2,15.6,3,18.3
	C94.4,103.9,100.6,103,106.8,101.3z"/>
<path class="st8" d="M64.1,97.6c0.4,2.2,0.9,4.3,1.3,6.5c1.9,2,4.5,6.2,6.7,5.9c1.3-1.3,1.2-4.6,0.6-8.6c-1.8-2-2.8-3.7-3.4-5.2
	c-0.1-0.3-0.2-0.7-0.3-1l2.9-1.4c-2.3-4.2-5-7.4-8.1-10.6c-1.8-1.9-2-6.1-2.6-8.6c-0.2-0.9,0.9-1.3,1.1-0.6
	c1.3,3.6,2.9,7.4,4.3,10.1c3.2,4.3,4.1,5.3,6.4,8.3c1.8,2.4,0,7.1,2.3,9.1c1.9,1.6,0.1,3.7,0.5,4.8c0.3,0.9,1.3,0.6,1.3,1.7
	c0,0.8-0.9,1.8-1,2.8c-0.1,0.8,0.6,1.6,0.5,2.7c1.3,1.2,4.7,1.1,5,1.4c1.4,1.8,2.5,4.2,2.8,8.2c2.5,3.1,4.9,5.4,6.7,5.4
	c1.8-1.4,0.5-6.2,0.3-9c-1.7-2.4-3.4-4.8-5.1-7.2c1-0.7,0.9-0.1,2.6-2.7c0.4-1.3-2-3.3-1.7-5.8c0.3-2.6-1.1-5.5-0.5-7.9
	c-5.8-12.9-7.1-23.3-17.5-35.9c-0.8-1.5-2.2-2.3-2.4-4.1c-3.9,5.1-9.7,8.5-18.5,5.8c0.6,2.3-0.3,4.7,0.1,7
	c-0.3,5.1,0.9,12.8,2.2,17.9c1.1,4.2,3.9,5.6,7.9,7.9c1,0.6,1.1,2.2,2.7,2.3c0.8,0,1.5,0.7,2.2,1L64.1,97.6z"/>
<path class="st10" d="M76.1,76.9c1,0,5.3-1.6,5.5-3.4c0.4-0.4,0.9-0.7,1.3-1.1c0,0,0.1,0,0.1-0.1l0.9-0.7l1.3-1.1
	c0.7-0.9,1.5-1.7,2.2-2.6l0.8-1.3l0.6-1.5l0.5-2.4v-0.6c0-0.5,0.2-0.8,0.3-1.3l0.1-0.4v-0.4c0,0,0-0.1,0-0.1l-0.5-0.3L87.9,59
	c-0.2-0.1-0.4-0.2-0.5-0.4c-0.5-0.5-1.1-1.1-1.6-1.6c0,0-0.1-0.1-0.1-0.2l-6.5,1.9c-1.5,4-7,10.5-6.8,12.7c0.2,3.1,1.2,5.1,2.6,6.7
	l0.4-0.2c0-0.1,0.1-0.1,0.1-0.2C75.6,77.4,75.8,77.1,76.1,76.9z"/>
<path class="st6" d="M57.1,72c0.4-0.9-0.1-1.8-1.6-1.7c-0.2,0-3,1.6-3.4,1.9c-0.5,0.5-1,1-1.5,1.4c-0.5,0.4-1.1,0.7-1.6,1.1
	c-1,0.8-1.8,1.5-2.7,1.9c-0.6,0.3-0.4,0.8,0,0.8c0.1,0,0.3-0.1,0.4-0.1c0.1,0,0.1,0.2,0.4,0.2c0.8-0.1,2.6-1.2,3.9-1.7
	c0.8-0.1,1-0.1,1.7-0.4c0.4-0.4,0.6-0.5,1.1-0.9c0.2-0.1,1-0.2,1.2-0.3C56.1,73.5,56.9,72.4,57.1,72z"/>
<path class="st4" d="M113.8,64.2c-0.3-0.2-2.5-1.1-2.6-1c-0.6,0.4-2.1,1.8-1.3,1.9c0.4,0,0.8,0.7,1.2,1c0.8,0.4,1.3,0.6,2.2,0.7
	c0.4,0.1,0.9,0.4,1.2,0.6c1.1,0.4,1.5-0.2,0.8-0.6c-0.5-0.4-0.4-0.4-1-0.8c0.8,0.3,1.5,0.7,2.3,1c1.6,0.4,2.2-0.2,1.6-0.3
	C116.4,66.3,115.1,65.3,113.8,64.2z"/>
<path class="st5" d="M57.5,72.3c0.1-0.1,0.2-0.2,0.3-0.3c1.1-0.9,3.1-1.6,4.8-2.2c1.3-0.5,4.8-0.1,5.9-0.7c1.3-0.6,3-1.8,5.1-2.3
	c2.2-0.6,4.6-1.5,7.7-2.8c0.7,5,2.7,9.3-2.9,11.6c-7.6,3.1-11.5,7.1-13.6,11.6C62,93.3,62,99.8,61.9,106c0,0.7-0.7,1.7-1.3,2.1
	c-2,1.4-5,2.7-6.4,4.9c-2.5,4-3.7,8.4-5.3,12.8c-0.3,0.7-0.6,1.5-1,2.2c-0.3,0.5-0.3,1.2-0.6,1.7c-1.3,2-4,3-4.9,5.3
	c-0.9,2.2-0.5,6.2,0.8,6.7c0.4,0.2,4.5-2.8,4.6-4.6c0-0.6,0.2-3.7,1-5.1c0.5-0.9,1.3-1.5,1.7-2.5c0.2-0.6,0.2-1.3,0.5-1.8
	c0.1-0.2,0.2-0.4,0.3-0.5c2-3.3,5.8-6.1,8.5-9.4c0.6-1.3,0.8-2.3,2-4.3c0.4-0.6,1.5-1.2,2.2-1.9c0.3-0.3,0.8-1.3,1.1-1.7
	c3.7-3.7,6.2-10.7,9.1-18.6c3.4-2.6,7.9-4.9,6.1-0.9c5.8,0.3-1.7,5.9-4.4,7c-1.1,0.4-2.3,0.9-2.9,1.9c-1.5,2.4-1.1,5.4,0.4,5.1
	c2.4-0.4,4.9-4.1,6.9-7.1c1.8,2.5,4.7,4.8,5.4,2.7c1.1-3.1,5.9-5,2.9-5.3c-0.6-0.1,2.4-0.6,1.9-1.6c-1.3-2.4-2.1-6.8-2.4-9.6
	c-0.1-2.2-0.3-3.8,6.9-9.7c0.5-0.4,0.6-1.2,0.8-1.9c4.9-2.7,2.9-5.5,2.3-8.9c1.7,0.6,3.5,1.5,4.5,1.7c1.7,0.4,4.2-0.7,6-0.2
	c0.3,0.1,0.7,0.6,1.1,1c1.7-1.4,1.5-1.4,2-2.6c-2.3-0.3-3.7-1.3-6.8-2.9c-0.9-0.5-2.6-0.3-3.9-0.3c-0.5,0-0.9-0.7-1.3-1.1
	c0.1-1.7-0.9-4.3-4-4.3c-4.4,0.5-7.1,0.6-12.6,1.8c-3.8,1.5-3.3,2.7-6.6,4.7c-1,0.6-2,1.3-3,1.8c-3.3,1.6-6.2,1.4-8.3,2.1
	c-2.5,0.9-4.3,2.3-6.1,3.1c-1.4,0.7-2.6,1.2-3.7,1.7C54.8,70.7,57,71.6,57.5,72.3z"/>
<path class="st11" d="M81,73.8c2.2,0.2,4.1,0,6.4-0.3c2.2-0.3,4.6-0.6,7.9-0.6c0,0.2-0.1,0.3-0.2,0.4c-3.1,0-5.5,0.3-7.6,0.6
	c-2.4,0.3-4.5,0.6-6.9,0.3C80.8,74.1,80.9,74,81,73.8L81,73.8z M73.3,62.6c2.2,0,4.6,0.2,7.2,0.5c2.4,0.3,4.5,0,6.9-0.3
	c3.7-0.5,8.2-1.1,16,0.1c2.5,0.4,4.7,0.2,6.8-0.2c0.4,0.1,0.7,0.2,1.1,0.2c-2.4,0.5-5.1,0.9-8,0.4c-7.6-1.2-12.1-0.6-15.7-0.1
	c-2.5,0.3-4.6,0.6-7.1,0.3c-3-0.4-5.6-0.5-8-0.5C72.7,62.9,73,62.8,73.3,62.6L73.3,62.6z M75,61.6c-0.2,0.1-0.4,0.3-0.7,0.4
	c1.9,0.1,3.9,0.2,6,0.5c2.5,0.3,4.6,0,7.1-0.3c3.6-0.5,8.1-1.1,15.7,0.1c2.1,0.3,3.9,0.3,5.7,0c-0.3-0.1-0.5-0.2-0.8-0.3
	c-1.5,0.2-3.1,0.2-4.8-0.1c-7.8-1.2-12.3-0.6-16-0.1c-2.4,0.3-4.5,0.6-6.9,0.3C78.6,61.9,76.7,61.7,75,61.6L75,61.6z M76.7,60.6
	c-0.3,0.2-0.3,0.2-0.5,0.3C76.1,61,76.1,61,76,61c1.4,0.1,2.9,0.2,4.4,0.4c2.5,0.3,4.6,0,7.1-0.3c3.6-0.5,8.1-1.1,15.7,0.1
	c1.3,0.2,2.6,0.3,3.8,0.2c-0.2-0.1-0.5-0.3-0.8-0.4c-0.9,0-1.9,0-2.9-0.2c-7.8-1.2-12.3-0.6-16-0.1c-2.4,0.3-4.5,0.6-6.9,0.3
	C79.3,60.9,77.8,60.7,76.7,60.6L76.7,60.6z M57.2,68.7c2.4,0,4.6-0.2,6.9-0.4c2.1-0.2,4.2-0.3,6.6-0.4c-0.3,0.2-0.6,0.3-0.9,0.5
	c-2,0.1-3.8,0.2-5.6,0.3c-2.7,0.2-5.2,0.4-7.9,0.3C56.5,69,56.8,68.9,57.2,68.7L57.2,68.7z M82.1,68.6c1.8,0.1,3.4-0.2,5.3-0.4
	c2.9-0.4,6.3-0.8,11.4-0.4c0,0.1,0,0.3,0,0.4c-5-0.4-8.4,0.1-11.2,0.4c-1.9,0.3-3.6,0.5-5.4,0.4C82.1,68.9,82.1,68.8,82.1,68.6
	L82.1,68.6z M59.5,67.6c-0.3,0.2-0.6,0.3-0.9,0.5c1.9-0.1,3.7-0.2,5.6-0.3c2.5-0.2,5.1-0.4,8-0.4c0.4-0.2,0.8-0.3,1.2-0.4
	c-3.4-0.1-6.4,0.2-9.2,0.4C62.5,67.4,61,67.5,59.5,67.6L59.5,67.6z M81.9,67.5c0,0.1,0.1,0.3,0.1,0.4c1.9,0.1,3.6-0.2,5.5-0.4
	c2.9-0.4,6.2-0.8,11.2-0.4c0-0.1,0-0.3-0.1-0.4c-5-0.4-8.4,0.1-11.3,0.4C85.5,67.4,83.8,67.6,81.9,67.5L81.9,67.5z M61.5,66.4
	c0.9-0.1,1.7-0.1,2.6-0.2c3.7-0.3,7.5-0.6,12.3-0.3c-0.4,0.1-0.8,0.3-1.1,0.4c-4.2-0.2-7.7,0.1-11.1,0.3c-1.2,0.1-2.3,0.2-3.5,0.2
	C61,66.8,61.2,66.6,61.5,66.4L61.5,66.4z M81.7,66.5c1.9,0.1,3.7-0.1,5.7-0.4c2.9-0.4,6.2-0.8,11.1-0.5c0,0.1,0.1,0.3,0.1,0.4
	c-4.9-0.4-8.2,0.1-11.1,0.4c-2,0.3-3.8,0.5-5.7,0.4L81.7,66.5L81.7,66.5z M64,65.2c-0.4,0.2-0.7,0.3-1.1,0.5c0.4,0,0.9-0.1,1.3-0.1
	c4-0.3,8.2-0.6,13.7-0.2c0.3-0.1,0.6-0.2,0.9-0.4c-5.9-0.6-10.4-0.2-14.6,0.1L64,65.2L64,65.2z M81.5,65.4l0.1,0.4
	c2,0.1,3.8-0.1,5.9-0.4c2.8-0.4,6-0.8,10.8-0.5l-0.1-0.4c-4.8-0.3-8,0.1-10.8,0.5C85.3,65.3,83.5,65.5,81.5,65.4L81.5,65.4z
	 M109,65.1c0.4-0.1,0.8-0.1,1.1-0.2c-0.3,0.3-0.4,0.4-0.6,0.6c-0.1,0-0.1,0-0.2,0C109.2,65.3,109.1,65.2,109,65.1L109,65.1z
	 M70.3,63.8c-1.3,0.3-2.4,0.4-3.5,0.6c3.8-0.2,7.9-0.4,13.1,0.2c0.3-0.1,0.5-0.2,0.8-0.3l-0.2,0C76.6,63.7,73.3,63.7,70.3,63.8
	L70.3,63.8z M81.4,64.3c0,0.1,0,0.3,0.1,0.4c2.1,0.1,4-0.1,6.1-0.4c2.7-0.4,5.9-0.8,10.5-0.5c0-0.1-0.1-0.3-0.1-0.4
	c-4.6-0.3-7.8,0.1-10.5,0.5C85.3,64.2,83.4,64.5,81.4,64.3L81.4,64.3z M99.3,63.6c0.5,0.2,1,0.4,1.4,0.6c0.8,0.1,1.6,0.2,2.5,0.3
	c0.6,0.1,1.1,0.1,1.7,0.2c1.2-0.2,2.4-0.4,3.4-0.2c0,0,0.1,0,0.1,0c0.8-0.1,1.6-0.2,2.4-0.4c0,0,0-0.1,0-0.1
	c0.1-0.2,0.1-0.3,0.2-0.4c-2.4,0.5-4.9,0.9-7.7,0.4C101.9,63.8,100.6,63.7,99.3,63.6L99.3,63.6z M78,59.7c0.7,0.1,1.8,0.2,2.6,0.3
	c2.4,0.3,4.5,0,6.9-0.3c3.1-0.4,6.8-0.9,12.5-0.3c0.2,0.3,0.5,0.5,0.8,0.5c1.3,0,3-0.2,3.9,0.3c0.2,0.1,0.4,0.2,0.6,0.3
	c-0.6,0-1.2-0.1-1.9-0.2c-7.6-1.2-12.1-0.6-15.7-0.1c-2.5,0.3-4.6,0.6-7.1,0.3c-0.8-0.1-2.2-0.3-2.9-0.3
	C77.6,59.9,77.9,59.8,78,59.7L78,59.7z M79,58.7c-0.1,0.1-0.3,0.2-0.4,0.4c0.6,0.1,1.2,0.2,1.8,0.2c2.5,0.3,4.6,0,7.1-0.3
	c3-0.4,6.5-0.9,11.8-0.4c0-0.1,0-0.3,0-0.4c-5.4-0.5-8.9,0-12,0.4c-2.4,0.3-4.5,0.6-6.9,0.3C80,58.8,79.5,58.8,79,58.7L79,58.7z
	 M80,57.8c0.2,0,0.3,0,0.6,0.1c2.4,0.3,4.5,0,6.9-0.3c0.6-0.1,1.3-0.2,2-0.3c0.5,0.2,1.6,0.2,2.5-0.1c0.1,0,0.2-0.1,0.4-0.2
	c2-0.1,4.2-0.1,7,0.1c0,0.1,0.1,0.3,0.1,0.4c-5.3-0.5-8.8,0-11.8,0.4c-2.5,0.3-4.6,0.6-7.1,0.3c-0.3,0-0.5-0.1-0.9-0.1
	C79.7,58,79.8,57.9,80,57.8L80,57.8z M81.4,56.8c-0.3,0.1-0.5,0.2-0.7,0.4c2.4,0.3,4.5,0,6.9-0.3c0.4,0,0.7-0.1,1.1-0.1
	c-0.1-0.1-0.2-0.3-0.4-0.4c-0.3,0-0.6,0.1-0.9,0.1C85.3,56.7,83.4,57,81.4,56.8L81.4,56.8z M93.4,55.9c1.5-0.1,3.2,0,5.2,0.1
	c0.1,0.1,0.2,0.3,0.3,0.5c-2.3-0.2-4.2-0.2-5.9-0.1C93.2,56.2,93.3,56,93.4,55.9L93.4,55.9z M94.2,54.8c0.9,0,1.9,0,3,0.1
	c0.3,0.1,0.5,0.3,0.8,0.5c-1.5-0.1-2.8-0.1-4-0.1C94,55.1,94.1,55,94.2,54.8L94.2,54.8z M87.9,55.8c-1.7,0.2-3.4,0.5-5.1,0.5l0,0
	c1.9-0.4,3.4-0.7,4.8-0.9C87.7,55.5,87.8,55.7,87.9,55.8L87.9,55.8z M82.9,81.4c1.8,0,3.5-0.3,5.3-0.5c-0.1,0.2-0.1,0.3-0.2,0.5
	c-1.3,0.2-2.5,0.4-3.8,0.4L82.9,81.4L82.9,81.4z M77.4,79.9l2.5,0.7c0.2,0,0.3,0,0.5,0.1c2.5,0.3,4.6,0,7.1-0.3c0.3,0,0.6-0.1,1-0.1
	c0.1-0.2,0.2-0.3,0.3-0.5c-0.5,0.1-0.9,0.1-1.4,0.2c-2.4,0.3-4.5,0.6-6.9,0.3C79.4,80.1,78.4,79.9,77.4,79.9L77.4,79.9z M72.7,78.6
	c2.4,0,4.9,0.2,7.8,0.5c2.4,0.3,4.5,0,6.9-0.3c0.7-0.1,1.5-0.2,2.3-0.3c-0.1,0.2-0.3,0.3-0.4,0.5c-0.6,0.1-1.2,0.2-1.8,0.2
	c-2.5,0.3-4.6,0.6-7.1,0.3c-2.2-0.3-4.2-0.4-6-0.5L72.7,78.6L72.7,78.6z M86.6,83.4l1.3-0.4c0,0.1,0,0.3,0,0.4l-0.7,0.3
	C87,83.7,86.8,83.6,86.6,83.4L86.6,83.4z M84.9,82.6c0.8-0.1,2.1-0.5,3-0.6c0,0.2,0,0.3,0,0.4c-0.6,0.1-1.6,0.5-2.2,0.5
	C85.4,82.8,85.2,82.7,84.9,82.6L84.9,82.6z M81.7,72.8c-0.1,0.1-0.1,0.3-0.2,0.4c2.1,0.1,3.9-0.1,6-0.4c2.2-0.3,4.7-0.6,7.9-0.6
	c0-0.1,0.1-0.2,0.1-0.4l0.1-0.1c-3.4-0.1-6,0.3-8.3,0.6C85.4,72.7,83.6,72.9,81.7,72.8L81.7,72.8z M57,71.9c0.3,0,0.7,0,1,0
	c-0.2,0.1-0.4,0.3-0.6,0.5C57.3,72.2,57.2,72,57,71.9L57,71.9z M82.1,71.8c1.8,0.1,3.4-0.2,5.3-0.4c2.6-0.3,5.6-0.7,9.8-0.5
	c-0.2,0.1-0.3,0.3-0.5,0.4c-3.9-0.1-6.7,0.2-9.1,0.6c-1.9,0.3-3.7,0.5-5.6,0.4C82,72.1,82.1,71.9,82.1,71.8L82.1,71.8z M55.6,70.8
	c1.6,0,3.2,0,4.7-0.1c-0.4,0.2-0.7,0.3-1.1,0.5c-1,0-2,0.1-3.1,0l0,0l0,0C55.9,71.1,55.8,71,55.6,70.8L55.6,70.8z M82.2,70.7
	c0,0.1,0,0.3,0,0.4c1.8,0,3.5-0.2,5.3-0.4c2.7-0.4,5.8-0.8,10.3-0.5c0.1-0.1,0.2-0.3,0.3-0.4c-4.7-0.3-7.9,0.1-10.7,0.5
	C85.6,70.5,84,70.7,82.2,70.7L82.2,70.7z M55.1,69.7c0,0.1,0,0.4,0,0.4c2.4,0.1,4.8,0,7.1-0.2l0.4-0.1c1.3-0.5,4.8-0.1,5.9-0.7
	c0,0,0.1,0,0.1-0.1c-1.6,0.1-3.1,0.2-4.6,0.3C61.1,69.6,58.2,69.8,55.1,69.7L55.1,69.7z M82.2,69.6c0,0.1,0,0.3,0,0.4
	c1.8,0,3.4-0.2,5.3-0.4c2.8-0.4,6.1-0.8,10.9-0.5c0.1-0.1,0.1-0.3,0.2-0.4c-5-0.4-8.3,0.1-11.2,0.5C85.6,69.5,83.9,69.7,82.2,69.6
	L82.2,69.6z M74.2,77.5c-0.2,0.1-0.5,0.3-0.7,0.4c2.1,0,4.4,0.2,7,0.5c2.5,0.3,4.6,0,7.1-0.3c0.9-0.1,1.8-0.2,2.8-0.3
	c0.1-0.2,0.3-0.3,0.5-0.5c-1.2,0.1-2.3,0.3-3.4,0.4c-2.4,0.3-4.5,0.6-6.9,0.3C78.2,77.8,76.1,77.6,74.2,77.5L74.2,77.5z M76.1,76.6
	c1.4,0.1,2.8,0.2,4.4,0.4c2.4,0.3,4.5,0,6.9-0.3c1.4-0.2,2.9-0.4,4.6-0.5c-0.2,0.2-0.3,0.3-0.5,0.5c-1.5,0.1-2.7,0.3-3.9,0.4
	c-2.5,0.3-4.6,0.6-7.1,0.3c-1.8-0.2-3.5-0.4-5.1-0.4C75.6,76.8,75.9,76.7,76.1,76.6L76.1,76.6z M78.2,75.7c-0.3,0.1-0.6,0.2-0.9,0.4
	c1,0.1,2,0.2,3.1,0.3c2.5,0.3,4.6,0,7.1-0.3c1.5-0.2,3.2-0.4,5.2-0.5c0.2-0.2,0.3-0.3,0.5-0.5c-2.3,0.1-4.1,0.3-5.8,0.6
	c-2.4,0.3-4.5,0.6-6.9,0.3C79.7,75.8,78.9,75.7,78.2,75.7L78.2,75.7z M79.9,74.8c-0.2,0.1-0.4,0.3-0.6,0.4c0.4,0,0.7,0.1,1.1,0.1
	c2.5,0.3,4.6,0,7.1-0.3c1.9-0.2,3.9-0.5,6.5-0.6c0.2-0.1,0.3-0.3,0.5-0.4c-2.9,0-5.1,0.3-7.1,0.6c-2.4,0.3-4.5,0.6-6.9,0.3
	C80.3,74.8,80.1,74.8,79.9,74.8z"/>
<path class="st12" d="M64.5,87.9c-2.5,5.9-2.7,12.1-2.8,18c0,0.7-0.7,1.7-1.3,2.1c-2,1.4-4.9,2.8-6.3,5c-1.1,1.7-3.8,3.7-5.5,5.6
	c-0.5,0.6-0.1,1.4-0.5,2c-0.7,0.8-1.3,0.6-1.7,1.4c-0.6,1-1,2.1-1,3.3c0,1.7,3.6,1,1.6,4c-1.3,2-3.7,3.4-4.7,5.8
	c-0.9,2.2-0.5,6.2,0.8,6.7c0.4,0.2,4.5-2.8,4.6-4.6c0-0.6,0.2-3.7,1-5.1c0.5-0.9,1.3-1.5,1.7-2.5c0.2-0.6,1.5,0.3,1.8-0.3
	c1.9-3.5,5.6-8.1,8.2-11.3c0.6-1.3,1.2-1.9,2.5-4c0.4-0.6,1.3-1.3,2-2c0.3-0.3,0.8-1.3,1.1-1.7c2.9-2.9,4.6-8.1,6.6-14
	c0.5-1.4,3.6-4.9,4.7-6.7c0.2-0.4-0.3-0.1-0.7-0.1C73.4,90,66.4,90.5,64.5,87.9L64.5,87.9z M75.5,96.9c1-0.9,1.1-2.6,1.5-2.8
	c0.1,0,2.1-1.4,2.3-1.9c-0.5-1.5-0.9-3.7-0.8-3.7c4.4-1.7,4.2-3,10.2-3.2c0.9,1.4,4,6.1,3.6,8.3c-0.7,3.9-2.4,2.4-4.6,4.9
	c-0.6,0.7-2.7,1.6-3.6,2.2c-0.4,0.3-1,1.6-2.3,1.1c-0.3-0.1-1.5,2.8-3.1,2.2c-0.6-0.2-1.5-0.9-1.6-1.1c-0.1-0.2-0.5,0.3-0.8,0.9
	c-0.6,1.1-1.6,1-3.5,1.4c-1.5,0.3,0.4-3.8,1.9-6.2C75.3,98,74.6,97.7,75.5,96.9z"/>
<path class="st4" d="M85.5,56.7c0.1-0.5,0.2-1.1,0.4-1.6c3.1-0.3,6.1-0.5,9.2-0.8c0.1,0.9,0.2,1.8,0.4,2.7c-0.5,0.9-1,1.8-1.5,2.7
	c-1.5,1.7-3.3,1.9-5.4,0C87.4,58.7,86.5,57.7,85.5,56.7z"/>
<path class="st3" d="M79.6,58.1c3-2.6,6.3,0.3,8.9,1.6c-1.9-1.6-2.7-4-0.9-4.3c0.2,0-0.3,0,0.3,0c-0.1-0.2-0.1-0.4-0.3-0.6
	c-3.4-0.2-6.5,1.4-7.7,2.5C79.6,57.5,79.7,57.9,79.6,58.1z"/>
<path class="st3" d="M97.1,54.8c-0.4,2.1-1.8,3.4-3.3,4.8c0.7-1.5,1.9-4.1,0-4.7c0.1-0.3,0.5-0.8,0.6-1.1c0.1-0.2,0.4-0.3,0.6-0.2
	c1.8,0.3,3,0,4.8-0.6c0.8-0.3,2.4-0.3,3.4,0.3c1.6,1,3.6,2.6,5.6,3.4c0.6,0.2,1.2,1.5,1.8,2.4c-0.8-0.6-1.3-1.5-1.9-1.9
	c-1-0.7-1.3-0.6-2.1-1c-2.4-1.3-3.5-2.6-6.1-2.5C99.6,53.7,97.4,54.2,97.1,54.8z"/>
<path class="st6" d="M91.7,47.9c-1.2,0.3-2.9,0-4.1-0.1c-0.8,0.1-1.4,0.4-1.4,1.1c0.1,1.6,0.1,4.4,0.3,4.8c0.7,1.6,2.2,3.4,2.8,3.6
	c0.5,0.2,1.6,0.2,2.5-0.1c0.5-0.2,2-1.5,2.5-2.6c0.4-0.7,0.3-2.8,0.3-3.7C93.1,50.4,92.6,49.4,91.7,47.9z"/>
<polygon class="st13" points="44.9,104.3 51.2,106.6 43.4,114.3 36.4,109.7 "/>
<polygon class="st14" points="39.7,103.5 45.5,106.8 36.4,115 30.3,109 "/>
<path class="st14" d="M112.9,56.2c1.5,1.3,3.2,2.3,5.1,2.9c2.9-2.1,4.5-4.7,4.5-8c-2-0.8-4-1.6-5.9-2.4
	C116.4,51.8,115.2,54.3,112.9,56.2z"/>
<polygon class="st13" points="97.1,105.5 93.7,106.8 97.9,110.9 101.5,108.4 "/>
<path class="st14" d="M41.9,82.6c-1.5,1.3-3.2,2.3-5.1,2.9c-2.9-2.1-4.5-4.7-4.5-8c2-0.8,4-1.6,5.9-2.4
	C38.5,78.2,39.6,80.7,41.9,82.6z"/>
<path class="st9" d="M116,79.2c0,0.1-0.1,0.3-0.2,0.6c-0.5,0.7-1.7,1.5-2.3,2.5c-2.8-3.3-11.1-5.5-14.3-10.7
	C104.1,76.3,112.4,76.9,116,79.2z"/>
<path class="st7" d="M59,62l0.6-0.3c0.1-0.8,0.2-1.5,0.1-2.4c-0.1-0.9-0.3-2-0.8-3.2l0,0c-0.2-0.5-0.4-1.2-0.5-2
	c-0.1-0.6-0.1-1.2,0.1-1.7l0-0.1l0-0.1C58,51,57.8,50,57.5,48.9c-0.2-1.1-0.5-2.2-0.9-3.4c0-0.2-0.2-0.2-0.4-0.2
	c-0.2,0-0.2,0.2-0.2,0.4c0.4,1.2,0.6,2.3,0.9,3.4c0.2,1.1,0.5,2.1,0.9,3.4c-0.1,0.5-0.1,1.2-0.1,1.9c0.1,0.8,0.3,1.6,0.6,2.2
	c0.5,1.1,0.7,2.1,0.8,3c0.1,0.9,0,1.7-0.2,2.4C58.9,61.9,58.9,61.9,59,62z"/>
<path class="st7" d="M59.8,45.3c-1-0.7-1.9-1.3-2.9-2c-0.3,0.1-0.1,1.7-0.4,1.8c-0.5-0.2-1.1-1-1.9-1.3l-0.9,2.3l-0.1,0.3l-0.1,0.3
	C56.1,48.8,58.2,47.3,59.8,45.3z"/>
<path class="st15" d="M58.9,46.5c-0.7-0.4-1.4-0.8-2.1-1.2c-0.1-0.1-0.2-0.1-0.4,0.2c-0.3,0.7-0.6,1.4-0.9,2
	c-0.1,0.2-0.2,0.3,0.1,0.4l1.1,0.7l-0.1,2.5c0,0.6,0.1,0.5-0.4,0.8c-0.5,0.4-1.1,0.8-1.6,1.1c-0.4,0.3-0.4,0.3-0.6,0.8
	c-0.2,0.4-0.4,0.8-0.6,1.2c-0.2,0.5-0.1,0.6-0.8,0.6c-1.4,0-2.8,0-4.3,0c-0.7,0-0.6-0.1-0.9,0.4c-0.3,0.6-0.6,1.1-1,1.7
	c-0.3,0.6-0.5,0.5,0.1,0.9c0.8,0.6,1.6,1.2,2.5,1.7c0.7,0.5,0.5,0.5,1.3,0.2c1.6-0.7,3.2-1.4,4.8-2.2c1.1-0.5,1-0.2,1.2-1.4
	c0.1-0.4,0.2-0.8,0.2-1.2c0.1-0.7,0-0.6,0.5-1.1c0.6-0.6,1.2-1.2,1.7-1.8c0.5-0.5,0.4-0.4,0.2-1.2c-0.2-1.3-0.4-2.5-0.6-3.8L59,47
	C59.1,46.9,59.2,46.7,58.9,46.5z"/>
<path class="st12" d="M91.3,91.9c-0.7-3.7-2-6.9-5.1-9.1c-0.8-0.6-1.7-0.8-2.7-1.3c-3.9-1.1-7.1-2-11-3c-4.1,2.6-6.8,5.9-8.3,9.8
	c3.5,1.8,9,7.3,10.8,3.8C78.2,86.1,84.7,89.3,91.3,91.9z"/>
<path class="st16" d="M77.1,103c-0.1,0.6-2.7,3.8-4.5,3.4c-1.8-0.4-1-5.2-0.8-6c0.1-0.3,0.2-0.7,0.3-1c0.2-0.5,0.4-0.9,0.8-1.2
	c0.8-0.7,2.1-1,2.6-1.6c0.8-0.9,1-1.7,1.1-1.9c-0.2,2.1-0.6,4.1-0.6,4.7C75.8,101.6,76.7,102.6,77.1,103z"/>
<path class="st16" d="M47.6,127.5c0.1,0.4-0.1,0.9-0.6,1.7c-1.3,2-3.7,3.4-4.7,5.8c-0.9,2.2-0.5,6.2,0.8,6.7
	c0.4,0.2,4.5-2.8,4.6-4.6c0-0.6,0.2-3.7,1-5.1c0.5-0.9,1.8-2.1,2.1-2.7C49.8,128.3,48.8,128.6,47.6,127.5z"/>
<path class="st17" d="M79.2,92.3c-0.1-0.5-0.9-0.9-0.7-2c0.1-0.5-0.2-0.8-0.5-0.9c-0.2,0-0.4,0.1-0.6,0.2c-1,0.8-2.7,3.3-4.3,5.3
	c0.5-0.9,4-5.8,4.7-6.9c0.3-0.8,1.7-1.2,1.5-0.1c-0.4,2.4,3.2,2.2,4,4C80.7,91.4,80,91.5,79.2,92.3z"/>
<path class="st18" d="M74.3,79l0.7,0.2c-9.1,7.2-10.6,16.8-11.5,26.8l-0.1,1.4c-0.2,1.8-1.9,2.5-3.6,3.1c-1.2,0.5-2.5,1-3,1.9
	c-0.8,1.3-1.8,2.3-2.7,3.2c-0.8,0.8-1.7,1.6-2.2,2.6c-0.3,0.5-0.4,1-0.6,1.6c-0.2,0.7-0.4,1.4-0.8,2c-0.4,0.5-0.9,0.9-1.5,1.3
	c-0.5,0.4-1.1,0.7-1.4,1.2c-0.3,0.5-0.3,1.1-0.2,1.6c0,0.3,0,0.7,0,1c0,0.1,0,0.1-0.1,0.2l-0.5-0.4c0-0.2,0-0.5,0-0.7
	c0-0.7,0-1.4,0.3-2c0.4-0.6,1-1,1.5-1.4c0.5-0.3,1-0.7,1.3-1.1c0.4-0.5,0.5-1.2,0.7-1.8c0.2-0.6,0.3-1.2,0.6-1.7
	c0.6-1.1,1.5-1.9,2.3-2.7c0.9-0.9,1.8-1.7,2.6-3c0.6-1.1,2-1.6,3.3-2.2c1.6-0.6,3.1-1.2,3.2-2.7c0.1-0.5,0.1-1,0.1-1.4
	C63.9,96,65.4,86.4,74.3,79z"/>
<path class="st19" d="M66.9,55.3c-5,6.1-11.2,8.4-18.8,6.3c0.1,0.6,0.3,1.1,0.4,1.7c7.6,1.9,13.9,0.3,18.5-6.3
	C67,56.3,67,55.8,66.9,55.3z"/>
<path class="st0" d="M62.1,59.3c-1.8,0.6-3.6,1.1-5.4,1.7c0.3,1.2,0.6,2.4,1,3.6c1.8-0.9,3.6-1.8,5.4-2.7
	C62.7,61,62.4,60.1,62.1,59.3z"/>
<path class="st5" d="M61.7,60c-1.5,0.5-3,0.9-4.4,1.4c0.3,1,0.4,1.5,0.7,2.4c1.5-0.7,2.9-1.5,4.4-2.2C62.1,60.9,62,60.7,61.7,60z"/>
<polygon class="st0" points="62.5,61.1 62.2,60.5 58.5,61.7 58.7,62.6 "/>
</svg>