<?xml version="1.0" encoding="utf-8"?>
<!-- Generator: Adobe Illustrator 21.0.0, SVG Export Plug-In . SVG Version: 6.00 Build 0)  -->
<svg version="1.1" id="Слой_1" xmlns="http://www.w3.org/2000/svg" xmlns:xlink="http://www.w3.org/1999/xlink" x="0px" y="0px"
	 viewBox="0 0 144 144" style="enable-background:new 0 0 144 144;" xml:space="preserve">
<style type="text/css">
	.st0{fill-rule:evenodd;clip-rule:evenodd;fill:#84B7D9;}
	.st1{fill-rule:evenodd;clip-rule:evenodd;fill:#E95C4C;}
	.st2{fill-rule:evenodd;clip-rule:evenodd;fill:#ADD2E4;}
	.st3{fill-rule:evenodd;clip-rule:evenodd;fill:#EBEFF6;}
	.st4{fill-rule:evenodd;clip-rule:evenodd;fill:#CAD6E4;}
	.st5{fill-rule:evenodd;clip-rule:evenodd;fill:#AAB4C6;}
	.st6{fill-rule:evenodd;clip-rule:evenodd;fill:#0F0831;}
	.st7{fill-rule:evenodd;clip-rule:evenodd;fill:#B7442C;}
	.st8{fill-rule:evenodd;clip-rule:evenodd;fill:#F8B539;}
	.st9{fill-rule:evenodd;clip-rule:evenodd;fill:#00A4CD;}
	.st10{fill-rule:evenodd;clip-rule:evenodd;fill:#0092B8;}
	.st11{fill-rule:evenodd;clip-rule:evenodd;fill:#FCD440;}
	.st12{fill-rule:evenodd;clip-rule:evenodd;fill:#DD5743;}
	.st13{fill:#DA5340;}
	.st14{fill-rule:evenodd;clip-rule:evenodd;fill:#EC6955;}
	.st15{fill:#E95C4C;}
	.st16{fill-rule:evenodd;clip-rule:evenodd;fill:#ED715E;}
	.st17{fill-rule:evenodd;clip-rule:evenodd;fill:#105D87;}
	.st18{fill-rule:evenodd;clip-rule:evenodd;fill:#122540;}
	.st19{fill-rule:evenodd;clip-rule:evenodd;fill:#E2E2AF;}
	.st20{fill:#BFC79F;}
	.st21{fill-rule:evenodd;clip-rule:evenodd;fill:#BFC79F;}
	.st22{fill-rule:evenodd;clip-rule:evenodd;fill:#031936;}
	.st23{fill-rule:evenodd;clip-rule:evenodd;fill:#15163D;}
	.st24{fill-rule:evenodd;clip-rule:evenodd;fill:#585077;}
	.st25{fill-rule:evenodd;clip-rule:evenodd;fill:#EA5B3D;}
	.st26{fill-rule:evenodd;clip-rule:evenodd;fill:#17B8DC;}
	.st27{fill:#EC6955;}
</style>
<g>
	<path class="st0" d="M74.7,14.6c0.1,0.1,0,0.3-0.1,0.4c-0.1,0.1-0.3,0-0.4-0.1L72,10.4L67.5,10c-0.1,0-0.3-0.1-0.2-0.3
		c0-0.1,0.1-0.2,0.2-0.2l3-1L69,8c-0.1,0-0.1,0-0.1-0.1l-1-1c-0.1,0-0.2,0.1-0.3,0.1c-0.5,0-0.8-0.4-0.8-0.8c0-0.5,0.4-0.8,0.8-0.8
		c0.5,0,0.8,0.4,0.8,0.8c0,0.1,0,0.3-0.1,0.4l0.9,1l2.2,0.7l0,0c0.1,0,0.2,0.1,0.2,0.2c0,0.1,0,0.3-0.2,0.3l-2.6,0.9l3.4,0.3
		c0.1,0,0.2,0.1,0.2,0.1L74.7,14.6L74.7,14.6z M78.7,6.4c-0.5,0-0.8,0.4-0.8,0.8c0,0.2,0.1,0.5,0.3,0.6L78,8.3l-3.3,0.6
		c-0.1,0-0.2,0.1-0.2,0.2c0,0.1,0.1,0.3,0.2,0.3l3.2,0.7h-0.9v0c-0.1,0-0.2,0.1-0.3,0.2l-1.2,5.1c0,0.1,0.1,0.3,0.2,0.3
		c0.1,0,0.3-0.1,0.3-0.2l1.1-4.9h3.1c0.2,0,0.3-0.1,0.3-0.3c0-0.1-0.1-0.2-0.2-0.3l-4.2-1l2.1-0.4c0.1,0,0.2-0.1,0.2-0.2l0.3-0.6
		c0,0,0.1,0,0.1,0c0.5,0,0.8-0.4,0.8-0.8C79.6,6.8,79.2,6.4,78.7,6.4z"/>
</g>
<g>
	<path class="st1" d="M75,128.4c26.6,0,48.2-21.7,48.2-48.2S101.5,31.9,75,31.9S26.7,53.6,26.7,80.1S48.4,128.4,75,128.4z"/>
</g>
<g>
	<path class="st0" d="M62.1,17.2c0-0.9,0.6-2.3,1.5-2.3c19.7-0.5,39.3-0.5,59,0.6c0.5,0,1,0.3,1.5,0.3c1.2,0.1,2.1,1.6,2.1,2.8
		c0.5,17.1,0.7,34.3-0.5,51.3c-0.1,1.4-2,2.8-3.4,2.5c-18.8-3.1-37.4-7.6-55.9-12.3c-1-0.3-1.8-1.4-1.9-2.4
		C63.1,44.3,62.4,30.8,62.1,17.2z"/>
</g>
<g>
	<path class="st2" d="M60.6,16.9c0-0.9,0.6-2.3,1.5-2.3c20.2-0.5,40.4-0.3,60.5,0.9c1.2,0.1,2.1,1.6,2.1,2.8
		c0.5,17.1,0.7,34.3-0.5,51.3c-0.1,1.4-2,2.8-3.4,2.5c-18.8-3.1-37.4-7.6-55.9-12.3c-1-0.3-1.8-1.4-1.9-2.4
		C61.6,44,60.9,30.4,60.6,16.9z"/>
</g>
<g>
	<path class="st3" d="M63.1,18.9c0-0.8,0.5-2.1,1.4-2.1c18.6-0.4,37.2-0.3,55.8,0.8c1.1,0.1,1.9,1.5,1.9,2.6
		c0.5,15.8,0.7,28.4-0.5,44.2c-0.1,1.3-1.9,2.6-3.1,2.3c-17.4-2.9-34.5-6.3-51.6-10.6c-0.9-0.2-1.7-1.3-1.8-2.2
		C64,41.5,63.3,31.4,63.1,18.9z"/>
</g>
<g>
	<path class="st4" d="M63.4,28.5l10.5-0.3c0.2,4.1,0.4,8.2,0.5,12.4l-10.1,3.3C63.9,38.7,63.6,33.7,63.4,28.5z"/>
</g>
<g>
	<path class="st3" d="M72.4,33.2l-0.1-3.5L63.5,30c0.1,1.4,0.1,2.8,0.2,4.2L72.4,33.2z"/>
</g>
<g>
	<polygon class="st3" points="65.5,35 72.6,34 73,39.1 65.9,41.2 	"/>
</g>
<g>
	<path class="st4" d="M85.9,16.6l4.8,10.1c-1.8-0.1-3.6-0.1-5.4-0.2l-7.2-9.9C80.8,16.6,83.3,16.6,85.9,16.6z"/>
</g>
<g>
	<path class="st4" d="M94.1,62.3l-2.8-2c-5-3.8-9.9-7.6-14.9-11.4l-12-5.1c0.1,0.7,0.1,1.3,0.2,2l10.8,4.5l13.5,11
		C90.6,61.5,92.3,61.9,94.1,62.3z"/>
</g>
<g>
	<path class="st4" d="M88.5,49.4c5.5,2.8,11.9,5.6,17.3,8.3c5.9-2.4,10.9-4.8,16.8-7.2c0-0.5,0.2-0.5,0-0.5c-0.1,0-0.7,0.3-0.8,0.3
		c-7.1-2.3-14.2-4.5-21.3-6.8c-3.8,1.9-8.1,3.5-11.9,5.3C88.3,49,88.5,49.3,88.5,49.4z"/>
</g>
<g>
	<path class="st5" d="M88.2,42.4c3.2,0.2,7.2,0,10.4,0.2c0.3,0,0,0.3,0,0.5c-3.9,1.9-7.8,3.8-11.8,5.7c-2.1-0.7-4.3-1.5-6.4-2.2
		c0-0.1-0.1-0.5,0-0.5C82.9,44.7,85.8,43.7,88.2,42.4z"/>
</g>
<g>
	<path class="st4" d="M119.8,66.6h-2.2c-1-0.2-2-0.3-3-0.5l-8.6-8l16.4-6.5c-0.1,4.1-0.4,8.4-0.7,12.9
		C121.7,65.3,120.8,66.2,119.8,66.6z"/>
</g>
<g>
	<path class="st4" d="M88.5,48.9c5.5,2.8,11.9,5.6,17.3,8.3c5.9-2.4,10.9-4.8,16.8-7.2c-7.4-2.3-14.8-4.7-22.2-7
		C96.4,44.9,92.4,46.9,88.5,48.9z"/>
</g>
<g>
	<path class="st4" d="M88.2,41.8c3.5,0.3,7,0.5,10.4,0.8c-3.9,1.9-7.8,3.8-11.8,5.7c-2.1-0.7-4.3-1.5-6.4-2.2
		C83.1,44.7,85.6,43.2,88.2,41.8z"/>
</g>
<g>
	<path class="st4" d="M122.5,29.5L104.3,29c-0.2,4.1-0.4,8.2-0.5,12.4l18.8,6.1C122.6,41.5,122.6,35.7,122.5,29.5z"/>
</g>
<g>
	<path class="st4" d="M122.4,27.7L122.4,27.7L103.9,27l-4.2-10.2l0.3,0l0.6,0l0.1,0c0.3,0,0.6,0,0.9,0l0.1,0l0.6,0l0.3,0
		c0.5,0,1,0,1.6,0l0.1,0l0.6,0l0.3,0l0.6,0l0.3,0l0.3,0l0.3,0l0.1,0l0.6,0l0.3,0l0.6,0l0.3,0l0.5,0l0.1,0l0.3,0l0.4,0l0.4,0l0.5,0
		l0,0l0.3,0l0,0l0.5,0l0.1,0l0.3,0l0.3,0l0.3,0l0.3,0l0.3,0l0.3,0l0.1,0l0.4,0l0.5,0l0.3,0l0.6,0l0.2,0l0.6,0l0.3,0l0.6,0l0.2,0
		c0.2,0,0.5,0,0.7,0l0.1,0c0.3,0,0.5,0,0.8,0l0.1,0l0,0c0.3,0,0.5,0,0.8,0c1.1,0.1,1.9,1.5,1.9,2.6
		C122.3,22.8,122.4,25.3,122.4,27.7z"/>
</g>
<g>
	<path class="st4" d="M69.9,16.7l8,9.9c2,0,4-0.1,5.9-0.1l-7.2-9.9C74.4,16.6,72.2,16.7,69.9,16.7z"/>
</g>
<g>
	<path class="st4" d="M67.9,16.7l7.7,9.9c-2.6,0.1-5.1,0.3-7.7,0.4l-4.8-5.6c0-0.8,0-1.6-0.1-2.5c0-0.8,0.5-2.1,1.4-2.1
		C65.6,16.8,66.8,16.8,67.9,16.7z"/>
</g>
<g>
	<path class="st3" d="M105.7,34l0.1-3.5l16.7,0.6c0,1.7,0.1,3.3,0.1,4.9L105.7,34z"/>
</g>
<g>
	<polygon class="st3" points="112.7,35.8 105.6,34.8 105.2,39.9 112.2,41.9 	"/>
</g>
<g>
	<path class="st3" d="M114.3,37.5l0-1.4l8.3,1.2c0,0.6,0,1.1,0,1.7L114.3,37.5z"/>
</g>
<g>
	<path class="st3" d="M114.3,40.1l0-1.4l8.3,1.4c0,0.3,0,0.6,0,0.9l0,0.8L114.3,40.1z"/>
</g>
<g>
	<path class="st3" d="M91.3,48.5l1-0.4l1.3,0.5l-0.9,0.4L91.3,48.5L91.3,48.5z M94.7,49l1,0.4l-1,0.5l-0.9-0.4L94.7,49L94.7,49z
		 M96.7,49.9l0.9,0.4l-1.1,0.5l-0.9-0.4L96.7,49.9L96.7,49.9z M98.8,50.7l1,0.4l-1.1,0.5l-1-0.4L98.8,50.7L98.8,50.7z M101,51.6
		l0.9,0.4l-1.2,0.5l-0.9-0.4L101,51.6L101,51.6z M103.2,52.4l-1.3,0.5l2,0.8l0.1-0.4l0.7-0.3L103.2,52.4L103.2,52.4z M105.7,53.4
		l1,0.4l-1.3,0.6l-1-0.4L105.7,53.4L105.7,53.4z M107.8,54.2l-1.4,0.6l0.9,0.4l1.4-0.6L107.8,54.2L107.8,54.2z M99.6,45l1-0.4
		l0.8,0.3l-0.9,0.4L99.6,45L99.6,45z M102.7,45.4l0.8,0.3l-1,0.5l-0.8-0.3L102.7,45.4L102.7,45.4z M104.9,46.1l1,0.4l-1.1,0.5
		l-1-0.4L104.9,46.1L104.9,46.1z M107.3,47l1,0.3l-1.2,0.5l-1-0.4L107.3,47L107.3,47z M109.7,47.8l0.8,0.3l-1.2,0.6l-0.8-0.3
		L109.7,47.8L109.7,47.8z M112,48.6l1.1,0.4l-1.3,0.6l-1.2-0.4L112,48.6L112,48.6z M114.3,49.5l-1.3,0.6l0.9,0.3l1.3-0.6L114.3,49.5
		L114.3,49.5z M116.5,50.2l1,0.4l-1.4,0.7l-1-0.4L116.5,50.2L116.5,50.2z M97.6,45.9l1-0.4l0.9,0.3l-0.9,0.5L97.6,45.9L97.6,45.9z
		 M100.7,46.3l0.9,0.3l-1,0.5l-0.9-0.3L100.7,46.3L100.7,46.3z M102.8,47l1,0.4l-1.1,0.5l-1-0.4L102.8,47L102.8,47z M105.2,47.9
		l1,0.4l-1.2,0.5l-1-0.4L105.2,47.9L105.2,47.9z M107.6,48.7l0.8,0.3l-1.2,0.6l-0.8-0.3L107.6,48.7L107.6,48.7z M109.9,49.5
		l-1.3,0.6l1.3,0.5l1.3-0.6L109.9,49.5L109.9,49.5z M112.3,50.4l0.9,0.3l-1.3,0.6L111,51L112.3,50.4L112.3,50.4z M114.5,51.2
		l-1.4,0.6l1,0.4l1.4-0.7L114.5,51.2L114.5,51.2z M95.5,46.7l1.2,0.5l0.9-0.4l-1.1-0.4L95.5,46.7L95.5,46.7z M98.8,47.2l0.9,0.3
		l-1,0.5l-0.9-0.4L98.8,47.2L98.8,47.2z M100.9,47.9l1,0.4l-1.1,0.5l-0.9-0.4L100.9,47.9L100.9,47.9z M103.1,48.8l1,0.4l-1.2,0.5
		l-1-0.4L103.1,48.8L103.1,48.8z M105.4,49.7l0.8,0.3l-1.2,0.5l-0.8-0.3L105.4,49.7L105.4,49.7z M107.6,50.5l1.3,0.5l-1.3,0.6
		l-1.4-0.6L107.6,50.5L107.6,50.5z M110,51.5l-1.3,0.6l0.9,0.4l1.3-0.6L110,51.5L110,51.5z M112.1,52.3l1,0.4l-1.4,0.6l-0.9-0.4
		L112.1,52.3L112.1,52.3z M93.4,47.5l1-0.4l1.3,0.5l-0.9,0.4L93.4,47.5L93.4,47.5z M96.8,48.1l0.9,0.4l-1,0.5l-0.9-0.4L96.8,48.1
		L96.8,48.1z M98.8,48.9l0.9,0.4l-1.1,0.5l-0.9-0.4L98.8,48.9L98.8,48.9z M100.9,49.7l1,0.4l-1.1,0.5l-1-0.4L100.9,49.7L100.9,49.7z
		 M103.2,50.6L104,51l-1.2,0.5l-0.9-0.4L103.2,50.6L103.2,50.6z M105.4,51.5l1.4,0.6l-1.2,0.6l-1.5-0.6L105.4,51.5L105.4,51.5z
		 M107.8,52.5l-1.3,0.6l1,0.4l1.3-0.6L107.8,52.5L107.8,52.5z M109.8,53.3l0.9,0.4l-1.4,0.6l-0.9-0.4L109.8,53.3z"/>
</g>
<g>
	<path class="st3" d="M102.8,19.1l-0.8-2.3c5.2,0.1,10.3,0.4,15.5,0.6l1,2.1L102.8,19.1z"/>
</g>
<g>
	<polygon class="st3" points="110.3,20.5 103.7,20.3 105.3,25 111.5,25 	"/>
</g>
<g>
	<path class="st3" d="M108.7,59l1-0.4l1.3,0.5l-0.9,0.4L108.7,59L108.7,59z M119.3,54.6l1-0.4l1.3,0.5l-0.9,0.4L119.3,54.6
		L119.3,54.6z M122.2,55.9l-0.6-0.3l0.6-0.3C122.3,55.5,122.2,55.7,122.2,55.9L122.2,55.9z M121.4,53.6l1-0.3c0,0.2,0,0.5,0,0.7
		L121.4,53.6L121.4,53.6z M106.8,60.3l1-0.4l0.8,0.3l-0.9,0.4L106.8,60.3L106.8,60.3z M109.9,60.6l0.8,0.3l-1,0.5l-0.8-0.3
		L109.9,60.6L109.9,60.6z M112,61.4l1,0.4l-1.1,0.5l-1-0.4L112,61.4L112,61.4z M114.5,62.2l1,0.3l-1.2,0.5l-1-0.4L114.5,62.2
		L114.5,62.2z M116.9,63.1l0.8,0.3l-1.2,0.6l-0.8-0.3L116.9,63.1L116.9,63.1z M119.2,63.9l1.1,0.4l-1.3,0.6l-1.2-0.4L119.2,63.9
		L119.2,63.9z M121.5,64.7l-1.3,0.6l0.9,0.3l0.1,0c0.2-0.3,0.4-0.6,0.5-0.9L121.5,64.7L121.5,64.7z M104.7,61.2l1-0.4l0.9,0.3
		l-0.9,0.5L104.7,61.2L104.7,61.2z M107.9,61.5l0.9,0.3l-1,0.5l-0.9-0.3L107.9,61.5L107.9,61.5z M110,62.3l1,0.4l-1.1,0.5l-1-0.4
		L110,62.3L110,62.3z M112.4,63.2l1,0.4l-1.2,0.5l-1-0.4L112.4,63.2L112.4,63.2z M114.8,64l0.8,0.3l-1.2,0.6l-0.8-0.3L114.8,64
		L114.8,64z M117.1,64.8l-1.3,0.6l1.3,0.5l1.3-0.6L117.1,64.8L117.1,64.8z M119.5,65.7l0.9,0.3l-1.3,0.6l-0.9-0.4L119.5,65.7
		L119.5,65.7z M102.7,61.9l1.2,0.5l0.9-0.4l-1.1-0.4L102.7,61.9L102.7,61.9z M105.9,62.4l0.9,0.3l-1,0.5l-0.9-0.4L105.9,62.4
		L105.9,62.4z M108,63.2l1,0.4l-1.1,0.5l-0.9-0.4L108,63.2L108,63.2z M110.2,64.1l1,0.4l-1.2,0.5l-1-0.4L110.2,64.1L110.2,64.1z
		 M112.5,65l0.8,0.3l-0.9,0.4c-0.4-0.1-0.7-0.1-1.1-0.2l0,0L112.5,65L112.5,65z M114.7,65.8l1.2,0.5c-0.6-0.1-1.1-0.2-1.7-0.3
		L114.7,65.8L114.7,65.8z M100.6,62.8l1-0.4l1.3,0.5l-0.9,0.4L100.6,62.8L100.6,62.8z M103.9,63.3l0.9,0.4l-0.9,0.4l-0.2,0l-0.8-0.3
		L103.9,63.3L103.9,63.3z M106,64.2l0.9,0.4l-0.3,0.1c-0.4-0.1-0.8-0.2-1.3-0.2L106,64.2L106,64.2z M112,59.5l1,0.4l-1,0.5l-0.9-0.4
		L112,59.5L112,59.5z M114.1,60.3l0.9,0.4l-1.1,0.5l-0.9-0.4L114.1,60.3L114.1,60.3z M116.2,61.2l1,0.4l-1.1,0.5l-1-0.4L116.2,61.2
		L116.2,61.2z M118.4,62l0.9,0.4l-1.2,0.5l-0.9-0.4L118.4,62L118.4,62z M120.6,62.9l-1.3,0.5l2,0.8l0.1-0.4l0.3-0.1l0-0.3
		L120.6,62.9L120.6,62.9z M117,55.5l1-0.4l0.8,0.3l-0.9,0.4L117,55.5L117,55.5z M120.1,55.8l0.8,0.3l-1,0.5l-0.8-0.3L120.1,55.8
		L120.1,55.8z M122.2,57.5l-1-0.4l1-0.5C122.2,56.9,122.2,57.2,122.2,57.5L122.2,57.5z M114.9,56.4l1-0.4l0.9,0.3l-0.9,0.5
		L114.9,56.4L114.9,56.4z M118.1,56.8l0.9,0.3l-1,0.5l-0.9-0.3L118.1,56.8L118.1,56.8z M120.2,57.5l1,0.4l-1.1,0.5l-1-0.4
		L120.2,57.5L120.2,57.5z M122.1,59.1l-0.6-0.2l0.7-0.3L122.1,59.1L122.1,59.1z M112.9,57.1l1.2,0.5l0.9-0.4l-1.1-0.4L112.9,57.1
		L112.9,57.1z M116.2,57.6l0.9,0.3l-1,0.5l-0.9-0.4L116.2,57.6L116.2,57.6z M118.2,58.4l1,0.4l-1.1,0.5l-0.9-0.4L118.2,58.4
		L118.2,58.4z M120.5,59.3l1,0.4l-1.2,0.5l-1-0.4L120.5,59.3L120.5,59.3z M122,60.9l-0.4-0.2l0.4-0.2L122,60.9L122,60.9z M110.8,58
		l1-0.4l1.3,0.5l-0.9,0.4L110.8,58L110.8,58z M114.2,58.6l0.9,0.4l-1,0.5l-0.9-0.4L114.2,58.6L114.2,58.6z M116.2,59.4l0.9,0.4
		l-1.1,0.5l-0.9-0.4L116.2,59.4L116.2,59.4z M118.3,60.2l1,0.4l-1.1,0.5l-1-0.4L118.3,60.2L118.3,60.2z M120.6,61.1l0.9,0.3
		l-1.2,0.5l-0.9-0.4L120.6,61.1L120.6,61.1z M121.9,62.7l-0.4-0.2l0.4-0.2L121.9,62.7z"/>
</g>
<g>
	<polygon class="st3" points="118.5,20.5 112.1,20.6 113.6,25 119.7,25 	"/>
</g>
<g>
	<path class="st6" d="M84.2,42.3c-2.5-3.6-8.3,0.6-8.7,0.1c-1.2-1.2,1.6-9.1,2.2-10.3c1-2.2,0.7-5.1,1.4-8.2
		c0.3-1.5,1.4-3.2,1.9-4.5c0.6-1.6,1.8-2.3,3.3-2.8c3.2,0,6.4,0,9.5,0.1c1.1,1.1,1.8,2.9,2.7,4.2c1,1.5,2.6,2.1,3.7,3.4
		c0.6,0.8,0.8,2.3,1.4,3.1c5.6,4,0.8,8,4.4,9.2c3,1,0.3,5.3,0.2,7.1c0.1,0.8,0.5,3.5,0.6,4.2C96.2,47.6,94.7,42.6,84.2,42.3z"/>
</g>
<g>
	<path class="st7" d="M114.1,66c-0.8-6-3-14-4.3-16.5c-0.2-0.4-1.3-4.3-2.9-5.2c-2.7-1.6-3.1-5.7-5.1-6.1c-2.4-0.4-3.5-1.5-4.7-2
		c-0.8-0.4-1.6-0.2-3.3-0.5c-7.7,2.1-7.4-0.3-15.1,1.8c-1.9,0.3-4.5,1.4-6.2,3.3c-1.6,1.7-2.5,3.9-3.8,6.2c-1.7,3-2.3,6-2.5,8.7
		c0.2,0.2,0.5,0.3,0.7,0.4C82.6,60.1,98.3,63.3,114.1,66z"/>
</g>
<g>
	<path class="st0" d="M82.7,62.3c-0.3-0.1-0.3-1,0.4-0.9c3.3,0.6,6.6,1.4,9.9,2.1c0.8,0.2,0.5,1.5-0.2,1.3
		C89.4,63.9,86,63.3,82.7,62.3z"/>
</g>
<g>
	<path class="st0" d="M94.8,64c1,0.2,1.9,0.4,2.9,0.6c0.8,0.2,0.5,1.5-0.2,1.3c-1-0.3-2-0.5-3-0.7C94,65.1,94,63.8,94.8,64z"/>
</g>
<g>
	<path class="st8" d="M98.7,41L84.6,59.3L70,46.7c0,0,0,0,0.1,0c2.1-3.4,1.4-4.4,7-6.8c7.8-1.9,11.6-2,17.8-2.8
		c1.2,0,0.3,1.9,0.9,2.6C96.3,40.4,98.3,40.1,98.7,41z"/>
</g>
<g>
	<path class="st9" d="M98.4,63.1c0.1-0.5,0.2-1,0.3-1.6c0.2-1.1,0.9-1.7,0.9-2.7c0.1-2.5-0.8-5.3-1.3-8.1c2.4,0.9,5,2.3,6.4,2.7
		c0.1,0,0.1,0,0.2,0.1c-6.1-9.6-2.5-3.4-4.5-9.6c0.2-2.7-1.4-4.3-5.8-4.3c-0.2,1.1-0.1,1-0.2,1.8c-0.3,2-0.8,3.1-1.5,3.8
		c-0.6,0.7-1.4,1.1-2.9,1.2c-5.8,0.4-6-2.3-10.8-7c-0.6-0.5-1.5,0.3-2.3,0.5c-5.5,2.4-4.9,3.4-7,6.8c-0.2,0.1,1.3,6.6,2.1,10.7
		c0.5,0.1,1,0.2,1.5,0.4c0.2-2.2,0.1-4.9,1.2-5.5c0.3,2.1,0.6,4.1,0.9,6C83.3,60.1,90.9,61.7,98.4,63.1z"/>
</g>
<g>
	<path class="st10" d="M75.7,58.2c-0.3-2-0.5-4.2-0.8-6c1.3-0.5,2-1.8,2.2-3.7c0.5,2.7,0.2,7.1,0.9,10.3
		C77.3,58.6,76.5,58.4,75.7,58.2z"/>
</g>
<g>
	<path class="st9" d="M77.1,48.1c-1.9-1.7-5.2,0.3-7.1-1.4c-0.7,1.7-0.9,5.5-0.9,10c2.6,0.6,5.1,1.3,7.7,1.9c0-0.3,0-0.7,0-1
		C76.7,54.3,77.4,50.7,77.1,48.1z"/>
</g>
<g>
	<path class="st1" d="M97.2,38.7c-2.6,2-2.5,4.6-4.5,6.9c1.1-2.4,2.7-6.7,0.1-7.8c0.1-0.5,0.7-1.3,0.9-1.7c0.1-0.3,0.6-0.4,0.8-0.4
		c0.6,0.1,2-0.1,3.3,0.6c1.8,1,4.2,1.8,4.6,2.1c-0.2,0-1.4-0.3-2.6-0.3C98.6,38,97.5,38.4,97.2,38.7z"/>
</g>
<g>
	<path class="st11" d="M89.7,25.1c-1.7,0.6-4.1-0.1-5.8-0.2c-1.1,0.1-2,0.6-1.9,1.7c0.1,2.6,0.1,8.4,0.4,9.1c1,2.5,3.1,5.5,4,5.8
		c0.7,0.3,2.3,0.3,3.5-0.1c0.7-0.2,2.8-2.4,3.6-4.2c0.5-1.2,0.5-5.9,0.5-7.4C91.7,29.1,90.9,27.5,89.7,25.1z"/>
</g>
<g>
	<path class="st12" d="M96.4,126.9c3.9-4.4,8.1-17,2.3-17.9c-4.5-0.7-11.4-0.5-15.3,0.4c-5.7,1.2-2.1,13.2,1.8,17.5
		C87.6,129.7,93.9,129.7,96.4,126.9z"/>
</g>
<g>
	<path class="st12" d="M96.4,89.4c-4,6.4-3.1,13.4-4.3,20.6c2.7-2,6.6-3.8,9.4-5.7c0.3-0.2-2.1-3.1-1.8-3.3c0.4-0.3,3.5,2.2,3.8,1.9
		c2.1-1.5,4.1-3.1,5.8-5c0.9-1.1,1.9-3.3,2.4-4.8c0.1-0.5-3.2-0.3-3.1-0.8c0.1-0.6,3.3-0.7,3.4-1.3c0.3-2.4,0.2-5.8,0-8.8
		c0-0.3-1.8,0.4-1.8,0.1c0-0.4,1.6-1.1,1.6-1.5c-0.1-1.2-0.3-2.5-0.4-3.8c-2.6,3.4-5.9,5.2-8.9,7.1c-0.3,0.2,0.6,3.7,0.4,3.9
		c-0.2,0.1-1.6-3.1-1.8-2.9C99.2,86.1,97.6,87.5,96.4,89.4z"/>
</g>
<g>
	<path class="st13" d="M92.1,110.2C92.1,110.2,92.1,110.2,92.1,110.2c-0.1,0-0.2-0.1-0.2-0.2c0.6-8.4,4-11.5,8-15
		c4-3.6,8.5-7.6,11.3-18.2c0-0.1,0.2-0.2,0.3-0.2c0.1,0,0.2,0.2,0.2,0.3c-2.9,10.7-7.5,14.8-11.5,18.4c-3.9,3.5-7.2,6.5-7.8,14.7
		C92.3,110.1,92.2,110.2,92.1,110.2z"/>
</g>
<g>
	<path class="st14" d="M91.1,110L91.1,110l-0.7-7.8c-2.4-4-4.8-7.9-7.2-11.9c0.1-2.3,0.5-4.4,1.1-6.5c0.1-0.3,2.6,0.5,2.8,0.2
		c0.1-0.3-2.2-1.8-2.1-2.1c1.3-3.3,3.1-6.3,5.3-9.1c0.2,1.4,1,2.6,2,3.8c0.3,0.3-1.5,4.2-1.2,4.5c0.3,0.3,2.7-2.9,3-2.6
		c0.7,0.7,1.5,1.5,2.2,2.4c0.3,0.3-0.6,1.6-0.4,1.9c0.2,0.3,1.6-0.2,1.9,0.2c1,1.7,1.6,3.7,1.4,6.3c-0.1,1-0.2,1.9-0.3,2.8
		c-0.1,0.4-3.9,1.9-4,2.2c-0.1,0.5,3.6-0.2,3.5,0.2c-0.6,2.6-1.8,5.9-2.7,8.3c-0.2,0.4-1.7-0.6-1.9-0.2c-0.1,0.3,1.5,1.1,1.4,1.4
		C94.3,106.1,92.1,108.1,91.1,110z"/>
</g>
<g>
	<path class="st15" d="M91.4,109.7C91.4,109.7,91.4,109.7,91.4,109.7c-0.1,0-0.2-0.1-0.2-0.2c0.7-7.9-0.3-13.5-1.3-18.5
		C88.7,85,87.8,79.9,90,72.7c0-0.1,0.2-0.2,0.3-0.1c0.1,0,0.2,0.2,0.1,0.3c-2.2,7-1.3,12.1-0.1,18c1,5,2,10.7,1.3,18.6
		C91.6,109.6,91.5,109.7,91.4,109.7z"/>
</g>
<g>
	<path class="st16" d="M95.8,126.9c3.9-4.4,5.1-16.4-0.6-15.2c-5.2,1.2-4.4,0-9.5-0.3c-5.8-0.3-5,11.1-1.2,15.5
		C87,129.7,93.3,129.7,95.8,126.9z"/>
</g>
<g>
	<path class="st16" d="M90.6,97.2c0.4,0.6,0.6,1.1,0.9,1.6c0.1,0.2-1.1,2.1-1.1,2.3c0.1,0.2,1.4-1.4,1.4-1.3c1,3.8-1.9,5.6-1.2,10.1
		c-4.3-3.2-6.6-4.1-10.1-8.1c-1.1-1.2-2.1-3.2-2.8-5.6c-0.1-0.2,2.6-0.5,2.5-0.7c0-0.2-2.8-0.3-2.8-0.5c-0.2-1-0.3-2-0.3-3
		c0-0.1,0.9-0.1,0.9-0.2c0-0.1-0.9-0.4-0.9-0.5c0.1-2.6,0.7-5.2,2.4-7.4c0.3,4.1,3.7,6.6,6.8,9.1c0.1,0.1-1.4,1.6-1.3,1.7
		c0.1,0.1,2-1.2,2.1-1.1c0.4,0.3,0.8,0.6,1.2,1c0.1,0.1-0.5,0.7-0.4,0.7c0.1,0.1,0.7-0.5,0.8-0.4C89.3,95.6,90,96.4,90.6,97.2z"/>
</g>
<g>
	<g>
		<path class="st17" d="M60.7,37.2c-6.4,3.2-15.4,3.3-21.8,6.5c-2.4,4-5.9,13.8-7.2,19.3c-0.9,3.6,0.5,3.2-1.1,5.8
			c-4.4,7-8.7,14.1-13.1,21.4c2.8,0.7,0.9,5.8,3.2,7.6c2,1.6,6.5-0.4,8.5,1.2c3.3,1.6,5,8.1,8.2,9.6c2.5,1.2,6.2-1,8.9-1.4
			c2.9-0.5,5.7-0.1,8-2.1c1.6-1.4,2.1-6.6,3.7-7.9c2.2-1.9,7.1,0.1,9.3-1.8c2.4-2,5.9-7.8,4.6-10c-1.2-2.1-2.3-4.3-3.2-6.5
			c-0.8-2.1-0.2-5.6-0.2-7.8C68.6,57.9,68.1,47.2,60.7,37.2z"/>
	</g>
	<g>
		<path class="st18" d="M45.7,61.6c5.1,1.5,12.4,5,17.5,6.5c2.7,8.5,4.2,29.3,3.8,36.8c-0.4,6.5-2.5,13-2.5,19.4
			c0,1.1-1.3,1-1.5,1.5c-0.1,0.3,0.3,1.6,0.8,1.9c0.6,0.4,1.4,0.7,2.3,0.9c1.1,0.3,2.5,0.3,3.4,0.7c2.2,0.9,3.4,2.2,3.4,2.4
			c0.8,2.3-4.8,1.7-9.7,0.9c-1.7-0.3-4.5,0.8-4.7-1.4c-0.2-1.7,0.9-2.6,0.3-4.3c-0.1-0.3-0.9,0-1.9-0.7c-0.7-0.4-1.7-0.8-0.9-1.9
			c0.2-0.3-0.9-0.8-0.9-1.4c-0.1-2.7,1.3-3.4,1.3-3.8c-0.1-0.7-0.5-1.1-0.6-1.8c-0.1-0.5,0.5-1,0.6-1.8c0.4-3.1,1-7.8,1.2-8.3
			c-0.2-2.7-0.9-5-1.1-7.6c-0.5-2.6-0.5-5.6-1-8.2c-1.5,6.8-2.8,15.4-3.3,17.9c-0.6,3.1-3.3,12.1-3.3,18.9c0,1-0.9-0.3-0.8,1.7
			c0,1,3.6,3.3,4.4,4.8c0.8,1.6-3.3,1.7-4.9,1.3c-0.9-0.2-1.7-1.1-2.5-1.7c-1.2-0.9-2.8-1.5-2.2-3c0.4-0.9,0.7-1.8,0.7-2.7
			c0-0.9-3.4,0-2.8-2.1c0.5-1.5-0.4-2.7-0.2-3.7c0.1-0.9,0.9-1,0.9-2c0-0.6-0.3-1.4-0.4-2.1c-0.1-0.6,0.5-1.2,0.5-1.8
			c0-4-0.7-6.8,1.3-11c0.3-0.6,0.5-8.9,0.9-18.6c0.1-3.5-0.5-5.2-1.1-8.8C41.4,72.5,45,63.5,45.7,61.6z"/>
	</g>
	<g>
		<path class="st10" d="M37,51.4c0.2-5.7,2.9-7,3.1-12.7c-2.2,5.4-4.6,12.8-7.7,18.9c-2.4,4.7-2.5,11-5,15
			c-4,6.2-9.5,11.3-11.6,14.7c-2.5,4.1-1.6,11,1.3,13.5c-0.1-7.7,4.5-10.7,7.8-14.1C32.7,79.1,28.9,62.1,37,51.4z"/>
	</g>
	<g>
		<path class="st19" d="M58.8,34.3c-6.3,0.2-10.4,2.6-16.7,2.8c-4.8,2.7-6.6,13.3-7.2,18.9c-0.2,2.1-0.2,3.8-0.1,4.2
			c1.8,3.7,5.4,5.5,8.7,7.8c0.1,0.1-0.2-1.9,0.7-4c-1.3-2.4,0.2-3.4-1.3-5.2c0.7-1.1,1.5-3.9,2.1-6.3c-0.9,4.6,1.3,9.3-0.4,13.9
			c0,0.1,12,5.9,17.7,2c0.5,1.7,0.3,0.4,0.8,2c1.7-1.4,2.6-2.6,3.8-3.7c0.7-0.6,1.7-0.7,2.4-1.2c0.3-0.2,0.4-0.8,0.6-1.1
			c1.4-1.8,2.9-6.1,2.9-10.3c0-0.4,0.2-1.3-0.1-2.3c-0.6-1.6-1.7-3.2-2-4c-0.7-2-6.5-11.6-8.1-12.6C61.5,34.6,59.9,34.4,58.8,34.3
			L58.8,34.3z M63.3,66.8c-0.6-3.8,2-10.6,2-14.3c0.4,0.9-0.1,0.5,1,2.9c-1.3,1.8-1.1,4.4-1.7,7.3c-0.1,0.5,0,1.4-0.2,2
			C64.2,65.6,63.6,66.2,63.3,66.8z"/>
	</g>
	<g>
		<path class="st20" d="M57.4,69.3l-0.4-0.2c0.7-1.1,0.8-1.9,1-3c0.1-0.6,0.2-1.2,0.4-1.9c0.1-0.4,0.1-0.7,0.1-1
			c0-0.6,0-1.4,0.5-2.6c0.2-0.6,0.1-1.5-0.1-2.4c-0.2-1-0.3-2.1-0.1-3l0.4,0.1c-0.2,0.8-0.1,1.8,0.1,2.8c0.2,1,0.3,1.9,0.1,2.7
			C59,61.9,59,62.5,59,63.2c0,0.4,0,0.7-0.1,1.1c-0.2,0.7-0.3,1.3-0.4,1.9C58.3,67.3,58.2,68.2,57.4,69.3z"/>
	</g>
	<g>
		<path class="st21" d="M47.1,33.4c0.1,0,0.3-0.1,0.3,0c-0.1,0.3-0.2,0.4-0.3,0.7c2.2,3,6.1,3.3,10.3,4c-0.9,0.7-0.6,2.6-1.6,3.3
			c-2.5-0.7-5.8-2.2-8.1-3.1c-1.4-0.5-0.7-2-1.2-3.2C46.8,34.2,46.7,33.8,47.1,33.4z"/>
	</g>
	<g>
		<path class="st22" d="M44.7,66.4c-0.6,1.8-0.5,1.4-0.7,3.3c7.7,1.1,16.2,4.6,20.2,1.5c-0.3-1.7-0.5-2.2-0.8-3.9
			C61.9,70,55.3,69.8,44.7,66.4z"/>
	</g>
	<g>
		<path class="st10" d="M47.2,34.5c5.7,3.6,8.2-1.9,12.8-0.4c0.8,0.3-0.1,2-0.1,2.8c-0.2,0.6-0.1,1.4-0.7,1.9
			c-0.4,0.4-1.2-2.1-1.6-2.2c-0.5-0.1-0.6,2.6-1.1,2.5c-5.4-0.9-11-1.4-16.6-0.1c0-0.1,0.1-0.8,0.2-0.9
			C41.8,36.6,44.4,35.5,47.2,34.5z"/>
	</g>
	<g>
		<path class="st21" d="M51.6,67.6c-0.7,0.5-4.5-1.5-6.1-4.1c-0.4-0.6-0.4-1.8-0.5-2.4c-0.1-0.8-1.2-4.1-1.2-4.2
			c0-0.3,0.6-1.8,0.7-2c0.4-2.1,1.3-4,1.8-5.8C44.9,55.8,46.7,63.1,51.6,67.6z"/>
	</g>
	<g>
		<path class="st19" d="M47.2,64.2l-3.9,3.6c-3.5-1.8-5.8-4.1-7.7-6.4c2.2-0.9,4.9-1.8,7-2.7C44.5,60.5,44.8,62.7,47.2,64.2
			C47.2,64.2,47.2,64.2,47.2,64.2z"/>
	</g>
	<g>
		<path class="st11" d="M47.2,64.2l-3.9,3.6c0.8,0.4,1.6,0.8,2.5,1.1c-0.3,1.1,1.2,2.1,0.8,3.1c-0.2,0.4-1.8,0-2.7,0.2
			c-0.8,0.2-0.5,1.2,0.3,1.3c1.5,0.1,3.1,0.7,4.5,0.6c0.6,0,1.2-0.1,1.7-0.2c0.6-0.2,0.8-0.7,1.2-1.3c0.3-0.4,0.7-0.8,0.9-1.4
			c0.2-0.7-0.2-2.6-1-3.6c-0.6-0.9-1.7-1.5-2.7-2.1C48.3,65.1,47.7,64.6,47.2,64.2z"/>
	</g>
	<g>
		<path class="st11" d="M50.3,15.3c2.3-0.3,6.7,1.1,8,2.1c0.8,1.1,1.5,2.2,2.2,3.3c0.3,0.4,0,1.2,0.2,1.6c0.4,0.8,1.4,1.2,1.7,2
			c0.3,0.6-0.9,0.6-0.9,1.2c0,0.5,0.4,0.8,0.6,1.4c0.1,0.2-0.1,0.5,0,0.7c0,0.2,0.2,0.3,0.3,0.4c0,0.2-0.6,0.6-0.6,0.8
			c0,0.3,0.1,0.4,0.1,0.6c0,1.2-0.3,1.6-1.3,1.7c-0.7,0-1.6,0.1-2.4,0.1c-1,0-1.2,0.9-0.9,2.3c0.1,0.3,0.5,0.9,0.6,1.2
			c0.1,0.2,0,0.2,0.1,0.4c0.3,0.6,0.5,1.2,0.7,1.7c0.4,0.9-0.8,0.7-1.8,1.2c-2.9,1.4-8-2.7-9.8-2.7c1.1-3.9,1.6-5.1,1.2-6.5
			c-0.2-0.8,0.8-0.9,1.4-1.4c0.2-0.6,0.2-1-0.2-1.8c-0.4-1.1,0-1.9,1.2-2.1c1.6,0.2,0.3-2.3,0.7-1.3c1,0.1,1.5-0.4,1.3-1.4
			c-0.4-0.9-0.3-1.2-0.7-2c0.6-0.5,0.7-1.5,0.5-2.6C52.2,15,51.2,15.9,50.3,15.3z"/>
	</g>
	<g>
		<path class="st23" d="M52.6,17c0.4-0.1,0.8-0.6,1.2-0.6c0.5,0.1,1,0.7,1.5,0.8c1.7,0.3,3.3,0.7,3.4,0.6c2-1.1,2.8-2.8,2.5-4.2
			c-0.1-0.4-0.7-0.4-0.9-0.8c-0.2-0.3,0.1-0.8-0.2-1c-0.6-0.5-1.4-0.8-2.4-0.9c-0.7-0.1-1.7,0.2-2.5,0.3c-0.9,0.1-1.4,0-2.3,0.3
			c-0.9,0.3-2.1,1.4-3.6,2.1c-1.1,0.5-2.6,0.6-3.2,1c-0.5,0.3,1.3,0.2,0.8,0.5c-0.5,0.2-3,0-3.1,0.4c-0.1,0.2,0.8,0.5,0.4,0.8
			c-0.6,0.4-1.3-0.3-1.4-0.1c-0.3,0.8,1.8,2.1,3.2,2.1c-0.7,0.5-1.3,1.2-1.6,2c-0.3,0.6,0.2,1.2,0.2,1.9c0,0.7-0.9,1.2-0.8,2
			c0.3,1.6,2.1,3.7,3.9,5.8c0.9,1.1,3.3-1.5,2.4-3c-1.5-2.7-1.1-4.1,2.1-3c0,0,1.5,1.1,1.9-0.4C54.4,22.9,52,17.6,52.6,17z"/>
	</g>
	<g>
		<path class="st21" d="M46.1,63.4c0.7,0.5,1.4,1.1,2.1,1.6c0.6,0.9-2.8,3.4-3.7,3.4c-1-0.4-1.9-0.9-2.8-1.5
			C43.2,66.8,46.4,64.9,46.1,63.4z"/>
	</g>
	<g>
		<path class="st8" d="M64.6,63.1c-0.1,0.5-0.3,1.7-0.6,2.2c-0.2,0.4-0.5,0.9-0.7,1.2c0,0.3-0.1,0.6-0.1,0.9c0,0.3,0,0.6,0.1,0.8
			c0.1,1.6,0.7,2.9,1,4.2c0.7,0.8,3-1.1,2.6-1.6c-0.3-0.4-1.2,0.7-1.3,0.1c0-0.5,0.6-0.6,0.7-1.5c0.1-1,0.4-0.9,1.4-2
			c0.3-0.3,0.6-0.7,0.9-1.1C68.4,64.7,66,63.3,64.6,63.1z"/>
	</g>
	<g>
		<path class="st21" d="M67.9,67.2c-0.5-1.5-2.5-2.2-3.6-2.7c0.1-0.7,0.3-1.5,0.4-2.2c0.1,0,0.3,0.1,0.4,0.1c1.6,0.5,4,1.6,4.4,2.9
			C69,65.9,68.4,66.5,67.9,67.2z"/>
	</g>
	<g>
		<path class="st19" d="M47,33.1c0.1,0,0.6-0.1,0.6,0c-0.1,0.3-0.1,0.4-0.2,0.6c2.2,3,6.1,3.3,10.3,4c-1,0.7-0.8,2.1-1.8,2.7
			c-4.3-1.2-8.7-2.7-9.8-5.6C46.3,34.1,46.5,33.5,47,33.1z"/>
	</g>
	<g>
		<path class="st21" d="M58,37.8c0.8,0.8,1.1,2.4,2.2,2.9c-0.3-0.9,0.2-2.6,0-3.6c-0.1-0.9-0.5-0.7-1.1-1.3
			c-0.2-0.2-0.5-0.5-0.8-0.5C58.4,36.6,58.8,37,58,37.8z"/>
	</g>
	<g>
		<path class="st19" d="M57.7,37.8c1.3,0.4,1.3,1.6,2.4,2.1c0.1-1,0.2-2,0-3c-0.1-0.8-1-2.4-1.8-3c-0.6-0.4-0.7-0.4-1.2-0.4
			C57.6,34.8,57.9,37.4,57.7,37.8z"/>
	</g>
	<g>
		<path class="st16" d="M58.9,39.7c0-0.1-1.1-1-1.2-0.9c-0.2,0-0.8,1.4-0.8,1.6c0,0.1,0.6,0.5,0.9,0.7l0,0l-0.7,5.5l0.6,3.2
			l-0.8,7.1l1.9,3.1L61,57l-0.7-8l-1.8-3.8l0-4.4C58.7,40.5,59,39.8,58.9,39.7z"/>
	</g>
	<g>
		<path class="st24" d="M60.5,69.2c-2-0.1-4-0.3-6-0.4c-0.1,1.3-0.3,2.6-0.4,3.9c2.1-0.2,4.2-0.4,6.3-0.6
			C60.5,71.1,60.5,70.2,60.5,69.2z"/>
	</g>
	<g>
		<path class="st18" d="M59.9,69.7c-1.6-0.1-3.3-0.2-4.9-0.3c-0.1,1.1-0.2,1.6-0.3,2.7c1.7-0.2,3.5-0.3,5.2-0.5
			C59.9,70.8,59.9,70.5,59.9,69.7z"/>
	</g>
	<g>
		<polygon class="st24" points="60.2,71.2 60.1,70.4 56,70.2 55.8,71.2 		"/>
	</g>
	<g>
		<path class="st23" d="M55.3,91.4c0.3,2.7,1.3,9.3,1.6,12c-0.2-5.8-0.3-15.5,0.4-21.3C56.6,85.2,55.9,88.3,55.3,91.4z"/>
	</g>
	<g>
		<path class="st21" d="M66.3,55.4c-0.7-1.3-0.6-1.2-1-2.9c0.3-2.3-0.4-6.1-0.7-8.1c0.4,1.2,1.2,4,1.3,5.4c0.1,1.8-0.1,4.3,1.7,5.9
			C66.9,55.3,66.6,55.3,66.3,55.4z"/>
	</g>
</g>
<g>
	<path class="st9" d="M97.9,56.5c0.4-5.8-1.6-10.9-1.2-16.8c1.3,0.1,2.4,0.3,3.4,0.7c1.6,0.6,3.2,1.4,4.1,2.6
		c1.2,1.6,1.4,3.9,1.8,5.9c0.7,3.1-0.2,7.1-0.4,10.9c-0.1,1.4-0.1,3-0.1,4.5c-2.9-0.5-5.7-1.1-8.6-1.6L97.9,56.5z"/>
</g>
<g>
	<path class="st1" d="M78.8,39c0.7,1.8,3.4,4.8,6.2,6.4c-1.3-2.2-3.8-5.5-1.3-6.9c-0.1-0.5-0.8-1.4-1-1.8c-0.1-0.3-0.7-0.3-0.8-0.3
		c-1.6,0.6-5,1-6.8,2.5C77,38.3,78.6,38.4,78.8,39z"/>
</g>
<g>
	<path class="st10" d="M96,62.6c0,0,0-0.1,0.1-0.1c1.2-2.3,2.6-9.1,2.8-9.4c0.1-0.3-0.4,1.9-1.8,8.8c-0.1,0.4-0.1,0.7-0.1,0.9
		C96.6,62.8,96.3,62.7,96,62.6z"/>
</g>
<g>
	<path class="st25" d="M116.8,64c-1.2-0.1-2-1.9-2-3.2c0.1-1,1.3-1.9,2.3-1.9c0.9,0.1,1.8,1.2,1.8,2.1C118.8,62.3,118,64.1,116.8,64
		z"/>
</g>
<g>
	<path class="st18" d="M81.3,24.9c-0.1,0.4-0.2,0.4-0.2,0.7c3.4-8.5,12.6-4.2,13.5,1.6c0.3,0.1,0.6,0.1,0.8,0.2
		C93.9,19.2,83.2,17.7,81.3,24.9z"/>
</g>
<g>
	<path class="st26" d="M111.2,63c-1.2-0.1-2-1.9-2-3.2c0.1-1,1.3-1.9,2.3-1.9c0.9,0.1,1.8,1.2,1.8,2.1C113.2,61.3,112.3,63,111.2,63
		z"/>
</g>
<g>
	<path class="st0" d="M88.4,14.8c0.5,0,0.8-0.1,1.1,0c0.8,0.1,0.7,1.4,0,1.3c-0.4-0.1-0.8,0-1.1-0.1C87.5,16,87.5,14.8,88.4,14.8z"
		/>
</g>
<g>
	<path class="st12" d="M73.5,73.6c1,1.2,2.2,2.2,3.6,2.9c2.5-1.3,4.1-3.1,4.4-5.7c-1.4-0.9-2.9-1.7-4.3-2.6
		C76.7,70.5,75.5,72.4,73.5,73.6z"/>
</g>
<g>
	<path class="st12" d="M76.8,112.1c-1.2,0.9-2.6,1.6-4.2,2c-2.1-1.8-3.3-3.9-3.1-6.5c1.6-0.5,3.2-1,4.8-1.6
		C74.3,108.4,75.1,110.5,76.8,112.1z"/>
</g>
<g>
	<path class="st12" d="M113.5,112.7c-1.2,0.9-2.6,1.6-4.2,2c-2.1-1.8-3.3-3.9-3.1-6.5c1.6-0.5,3.2-1,4.8-1.6
		C111,109,111.8,111.1,113.5,112.7z"/>
</g>
<g>
	<path class="st1" d="M95.7,27.6c-0.4-0.4-1.7-0.5-2.1,0c-0.5,0.5-1.2,2.6-1.2,3.1s0.9,2.8,1.4,2.8c0.1,0,0.4,0.1,0.5,0
		c0.7-0.6,1.6-2.4,1.7-2.8C96.2,30.2,96.1,28,95.7,27.6z"/>
</g>
<g>
	<path class="st16" d="M96,27.6c-0.4-0.4-1.4-0.5-1.9,0c-0.5,0.5-1.2,2.6-1.2,3.1s0.9,2.8,1.4,2.8c0.5,0,2.2-2.3,2.3-2.8
		C96.7,30.2,96.4,28,96,27.6z"/>
</g>
<g>
	<path class="st16" d="M94.9,31.7c0-0.2-0.6-0.1-0.7,0.1c-0.5,1.7-0.2,4.1-1.6,5.4c-1.2,1.1-3.2,0.6-4.9,0.5c-0.2,0,0-0.4-0.1-0.6
		c-0.3-0.4-1.1-0.3-1.1,0.2c0,0.3,0,0.6,0.1,0.9c0.1,0.2,0.2,0.4,0.4,0.4c2.1-0.1,4.4,0.7,6-0.7C94.7,36.5,94.5,33.8,94.9,31.7z"/>
</g>
<g>
	<path class="st27" d="M90.6,110.1c-0.1,0-0.2-0.1-0.2-0.2c-1.9-6.4-4.6-9.7-7-12.7c-2.9-3.6-5.2-6.5-4.2-13.5
		c0-0.1,0.1-0.2,0.3-0.2c0.1,0,0.2,0.1,0.2,0.3c-1,6.8,1.2,9.5,4.1,13.1c2.3,2.8,5.1,6.3,7,12.8C90.9,110,90.8,110.1,90.6,110.1
		C90.6,110.1,90.6,110.1,90.6,110.1z"/>
</g>
<g>
	<path class="st15" d="M90,90.5c-0.1,0-0.2,0-0.2-0.1c-0.1-0.1,0-0.2,0.1-0.3c2.4-1.3,4.5-3.1,6.1-5.4c0.1-0.1,0.2-0.1,0.3-0.1
		c0.1,0.1,0.1,0.2,0.1,0.3c-1.6,2.4-3.7,4.2-6.2,5.6C90.1,90.5,90,90.5,90,90.5z"/>
</g>
<g>
	<path class="st15" d="M90.5,93.3c-0.1,0-0.2,0-0.2-0.1c-0.1-0.1,0-0.2,0.1-0.3l0.3-0.1c1.2-0.5,2.3-1,3-2.4
		c0.1-0.1,0.2-0.2,0.3-0.1c0.1,0.1,0.2,0.2,0.1,0.3c-0.8,1.5-2,2-3.2,2.6L90.5,93.3C90.6,93.3,90.5,93.3,90.5,93.3z"/>
</g>
<g>
	<path class="st27" d="M86.7,101.6c0,0-0.1,0-0.1,0c-0.9-0.4-2.1-0.3-2.6,0c-0.1,0-0.2,0-0.3-0.1c0-0.1,0-0.2,0.1-0.3
		c0.7-0.3,2-0.5,3,0.1c0.1,0.1,0.2,0.2,0.1,0.3C86.9,101.6,86.8,101.6,86.7,101.6z"/>
</g>
<g>
	<path class="st27" d="M85.2,99.5C85.2,99.5,85.2,99.5,85.2,99.5c-0.2,0-0.2-0.1-0.2-0.3c0.2-1,0.9-1.7,1.6-2.3
		c0.1-0.1,0.2-0.2,0.3-0.3c0.1-0.1,0.2-0.1,0.3,0c0.1,0.1,0.1,0.2,0,0.3c-0.1,0.1-0.2,0.2-0.3,0.3c-0.6,0.6-1.3,1.1-1.5,2
		C85.4,99.4,85.3,99.5,85.2,99.5z"/>
</g>
<g>
	<path class="st13" d="M107.6,95.4c0,0-0.1,0-0.1,0c-1.3-1-3.7-1.7-5.7-1.7c-0.1,0-0.2-0.1-0.2-0.2c0-0.1,0.1-0.2,0.2-0.2
		c0,0,0,0,0,0c2.1,0,4.6,0.7,5.9,1.7c0.1,0.1,0.1,0.2,0,0.3C107.7,95.3,107.6,95.4,107.6,95.4z"/>
</g>
<g>
	<path class="st13" d="M103.6,96.3c0,0-0.1,0-0.1,0c-0.7-0.4-1.8-0.9-3.7-0.9c-0.1,0-0.2-0.1-0.2-0.2c0-0.1,0.1-0.2,0.2-0.2
		c2,0,3.1,0.5,3.9,1c0.1,0.1,0.1,0.2,0.1,0.3C103.7,96.2,103.7,96.3,103.6,96.3z"/>
</g>
<g>
	<path class="st13" d="M106.4,88.5c-0.1,0-0.2-0.1-0.2-0.1c-0.3-0.7-0.4-1.4-0.5-2.1c0-0.1,0.1-0.2,0.2-0.2c0.1,0,0.2,0.1,0.2,0.2
		c0.1,0.7,0.2,1.3,0.4,2C106.6,88.3,106.6,88.4,106.4,88.5C106.4,88.5,106.4,88.5,106.4,88.5z"/>
</g>
</svg>