<?xml version="1.0" encoding="utf-8"?>
<!-- Generator: Adobe Illustrator 21.0.0, SVG Export Plug-In . SVG Version: 6.00 Build 0)  -->
<svg version="1.1" id="Слой_1" xmlns="http://www.w3.org/2000/svg" xmlns:xlink="http://www.w3.org/1999/xlink" x="0px" y="0px"
	 viewBox="0 0 144 144" style="enable-background:new 0 0 144 144;" xml:space="preserve">
<style type="text/css">
	.st0{fill-rule:evenodd;clip-rule:evenodd;fill:#00A4CD;}
	.st1{fill-rule:evenodd;clip-rule:evenodd;fill:#0092B8;}
	.st2{fill-rule:evenodd;clip-rule:evenodd;fill:#17B8DC;}
	.st3{fill-rule:evenodd;clip-rule:evenodd;fill:#105D87;}
	.st4{fill-rule:evenodd;clip-rule:evenodd;fill:#007DB6;}
	.st5{fill-rule:evenodd;clip-rule:evenodd;fill:#DD5743;}
	.st6{fill-rule:evenodd;clip-rule:evenodd;fill:#F8B539;}
	.st7{fill-rule:evenodd;clip-rule:evenodd;fill:#122540;}
	.st8{fill-rule:evenodd;clip-rule:evenodd;fill:#C8472C;}
	.st9{fill-rule:evenodd;clip-rule:evenodd;fill:#ADD2E4;}
	.st10{fill-rule:evenodd;clip-rule:evenodd;fill:#98C5E3;}
	.st11{fill-rule:evenodd;clip-rule:evenodd;fill:#A63D2C;}
	.st12{fill-rule:evenodd;clip-rule:evenodd;fill:#073D65;}
	.st13{fill-rule:evenodd;clip-rule:evenodd;fill:#EA5B3D;}
	.st14{fill-rule:evenodd;clip-rule:evenodd;fill:#061638;}
	.st15{fill-rule:evenodd;clip-rule:evenodd;fill:#0F0831;}
	.st16{fill-rule:evenodd;clip-rule:evenodd;fill:#E95C4C;}
	.st17{fill-rule:evenodd;clip-rule:evenodd;fill:#FCD440;}
	.st18{fill-rule:evenodd;clip-rule:evenodd;fill:#CB5042;}
	.st19{fill-rule:evenodd;clip-rule:evenodd;fill:#031936;}
</style>
<path class="st0" d="M70.6,125.4c26.5,0,48.1-21.6,48.1-48.1S97.1,29.2,70.6,29.2S22.5,50.8,22.5,77.3S44.1,125.4,70.6,125.4z"/>
<path class="st1" d="M91.7,44.9c0.9,2.9,2.3,5.6,4.4,8c5.5-0.4,9.7-2.5,12.4-6.9c-1.9-2.7-3.9-5.3-5.8-8
	C99.8,41.9,96.2,44.3,91.7,44.9z"/>
<path class="st1" d="M21,70c-0.2,2,0.1,4,0.8,6c3.5,1.1,6.7,0.7,9.4-1.4c-0.6-2.1-1.2-4.3-1.8-6.4C26.8,70,24,70.7,21,70z"/>
<path class="st2" d="M105.8,32.6c3,0.3,5.9,1.3,8.6,2.9c0.6,5.4-0.8,10-4.7,13.4c-3-1.5-5.9-2.9-8.9-4.4
	C104.2,41.1,105.9,37.1,105.8,32.6z"/>
<path class="st0" d="M112.9,37.8c0.1,0.1,0.1,0.2,0.1,0.3c-0.1,0.1-0.2,0.1-0.3,0.1c-0.8-0.6-1.7-1-2.6-1.3
	c-0.9-0.3-1.8-0.5-2.7-0.5c-0.1,0-0.2-0.1-0.2-0.2s0.1-0.2,0.2-0.2c1,0.1,1.9,0.2,2.9,0.5C111.1,36.7,112,37.1,112.9,37.8
	L112.9,37.8z M110.1,44.8c0.1,0.1,0.1,0.2,0.1,0.3c-0.1,0.1-0.2,0.1-0.3,0.1c-0.4-0.3-0.9-0.5-1.3-0.7c-0.4-0.2-0.9-0.4-1.3-0.5
	c-0.1,0-0.2-0.2-0.1-0.3c0-0.1,0.2-0.2,0.3-0.1c0.5,0.2,0.9,0.3,1.4,0.6C109.2,44.3,109.7,44.6,110.1,44.8L110.1,44.8z M110.9,43.4
	c-0.9-0.6-1.8-1-2.7-1.4c-0.9-0.4-1.8-0.6-2.7-0.8c-0.1,0-0.2,0-0.3,0.2c0,0.1,0,0.2,0.2,0.3c0.9,0.2,1.8,0.5,2.7,0.8
	c0.9,0.3,1.8,0.8,2.6,1.3c0.1,0.1,0.2,0,0.3-0.1C111,43.6,111,43.4,110.9,43.4L110.9,43.4z M111.5,42c0.1,0.1,0.1,0.2,0.1,0.3
	c-0.1,0.1-0.2,0.1-0.3,0.1c-0.9-0.5-1.8-1-2.6-1.3c-0.9-0.3-1.8-0.6-2.7-0.8c-0.1,0-0.2-0.1-0.2-0.3c0-0.1,0.1-0.2,0.3-0.2
	c0.9,0.2,1.9,0.4,2.8,0.8C109.7,41,110.6,41.5,111.5,42L111.5,42z M112.3,40.7c-0.9-0.6-1.8-1-2.7-1.3c-0.9-0.3-1.8-0.6-2.7-0.7
	c-0.1,0-0.2,0.1-0.3,0.2c0,0.1,0.1,0.2,0.2,0.3c0.9,0.1,1.8,0.4,2.6,0.7c0.9,0.3,1.8,0.8,2.7,1.3c0.1,0.1,0.2,0,0.3-0.1
	C112.4,40.9,112.4,40.7,112.3,40.7L112.3,40.7z M112.6,39.2c-0.9-0.6-1.8-1.1-2.7-1.4c-0.9-0.3-1.9-0.5-2.8-0.7
	c-0.1,0-0.2,0.1-0.3,0.2c0,0.1,0.1,0.2,0.2,0.3c0.9,0.2,1.8,0.4,2.7,0.7c0.9,0.3,1.7,0.7,2.6,1.3c0.1,0.1,0.2,0,0.3-0.1
	C112.7,39.4,112.7,39.3,112.6,39.2z"/>
<polygon class="st3" points="81.2,93.1 66.4,60.6 45.4,61.7 38.9,63.3 35.5,70.1 36.5,89 50.6,93.9 "/>
<path class="st3" d="M44.3,97.2l-3.9,0.2c-1.2,6.3-2.5,12.6-3.7,18.9c0.4,1.4,1.2,1.7,2.5,0.9L44.3,97.2z"/>
<path class="st3" d="M58.9,95.9l-4-0.1c1.2,10.8,1.8,16.7,3,27.4c1.1,0.7,2.2,1.2,3.2-0.3L58.9,95.9z"/>
<path class="st3" d="M74.3,94.8l-3.8,0.6c2.7,9.1,4.8,16,7.5,25.1c1.9,1,2.9,0.3,3.3-1.3L74.3,94.8z"/>
<path class="st4" d="M40.7,60.4c-3.5,1-5.8,3.1-6,7.7c-0.5,7.7-1.1,15.5-1.6,23.2c-0.7,4.7,2.1,6.4,7.2,6.1
	c12.1-0.5,24.3-1,36.4-1.4c0-1.3,0-2.6,0-3.9c-8.3,0.2-15.2,0.5-23.9,0.5c-1.4,0-1-2.8-1.1-4.2c0.2-2.6-1.3-3.8-4-4.1
	c-3.1,0.1-6.2,0.2-9.2,0.2c-0.1-4.5-0.2-9-0.2-13.5c-0.1-4.9,2-7,5.6-7.2c5.5-0.5,11-0.9,16.4-1.4c-1-0.9-2-1.9-3-2.8
	C51.8,59.9,46.3,60.1,40.7,60.4z"/>
<path class="st2" d="M99.9,103.5c-2.5,1.7-4.7,3.8-6.4,6.5c1.9,5.1,5.2,8.6,10.2,9.9c2-2.6,4-5.3,6-7.9
	C105.1,110.4,101.8,107.6,99.9,103.5z"/>
<path class="st0" d="M95.8,111.3c-0.1,0.1,0,0.2,0.1,0.3c0.1,0.1,0.2,0,0.3-0.1c0.5-0.9,1.1-1.7,1.7-2.4c0.7-0.7,1.4-1.2,2.2-1.7
	c0.1-0.1,0.1-0.2,0.1-0.3c-0.1-0.1-0.2-0.1-0.3-0.1c-0.8,0.5-1.6,1.1-2.3,1.8C96.9,109.6,96.3,110.4,95.8,111.3L95.8,111.3z
	 M101.5,116.4c-0.1,0.1,0,0.2,0.1,0.3c0.1,0.1,0.2,0,0.3-0.1c0.3-0.4,0.6-0.9,0.9-1.2c0.3-0.4,0.6-0.7,1-1.1c0.1-0.1,0.1-0.2,0-0.3
	c-0.1-0.1-0.2-0.1-0.3,0c-0.3,0.3-0.7,0.7-1,1.1C102.1,115.5,101.8,115.9,101.5,116.4L101.5,116.4z M100.2,115.4
	c0.6-0.9,1.2-1.7,1.8-2.4c0.6-0.7,1.3-1.4,2.1-2c0.1-0.1,0.2-0.1,0.3,0c0.1,0.1,0.1,0.2,0,0.3c-0.7,0.6-1.4,1.2-2,1.9
	c-0.6,0.7-1.2,1.5-1.8,2.4c-0.1,0.1-0.2,0.1-0.3,0.1C100.2,115.7,100.1,115.5,100.2,115.4L100.2,115.4z M99,114.5
	c0.6-0.9,1.2-1.7,1.8-2.4c0.6-0.7,1.3-1.4,2.1-1.9c0.1-0.1,0.2-0.1,0.3,0c0.1,0.1,0.1,0.2,0,0.3c-0.7,0.6-1.4,1.2-2,1.9
	c-0.6,0.7-1.2,1.5-1.8,2.4c-0.1,0.1-0.2,0.1-0.3,0.1C99,114.8,98.9,114.6,99,114.5L99,114.5z M97.7,113.6c0.6-0.9,1.2-1.7,1.8-2.4
	c0.7-0.7,1.4-1.3,2.1-1.9c0.1-0.1,0.2,0,0.3,0.1c0.1,0.1,0,0.2-0.1,0.3c-0.7,0.5-1.4,1.1-2,1.8c-0.6,0.7-1.2,1.5-1.8,2.4
	c-0.1,0.1-0.2,0.1-0.3,0.1C97.7,113.9,97.6,113.7,97.7,113.6L97.7,113.6z M96.8,112.5c0.5-1,1.1-1.8,1.8-2.5
	c0.7-0.7,1.4-1.3,2.2-1.9c0.1-0.1,0.2,0,0.3,0c0.1,0.1,0,0.2,0,0.3c-0.8,0.6-1.5,1.1-2.1,1.8c-0.7,0.7-1.2,1.4-1.7,2.4
	c-0.1,0.1-0.2,0.1-0.3,0.1C96.8,112.7,96.7,112.6,96.8,112.5z"/>
<path class="st1" d="M88.4,64.4c-0.2-2,0.1-4,0.8-6c3.5-1.1,6.7-0.7,9.4,1.4c-0.6,2.1-1.2,4.3-1.8,6.4
	C94.1,64.4,91.3,63.8,88.4,64.4z"/>
<path class="st5" d="M37.9,33.8c1.9,3.2,0.7,6-2.5,8.5c4.4,2.2,15.5,2.1,19.2,9.7c3,6,1.8,11.9,1.7,18.4c9.8-0.3,16.6-0.6,26.5-0.9
	c0-9-5-19.8-2.7-28c1.4-4.9,9-8.2,16-11c-4,0-7.7-0.7-9.8-4.2c-2.5,0.7-4.9,0.7-6.9,1.1c-2.8,0.6-5,1.5-7,1.5
	c-2.5,0-4.4-0.4-5.7-1.3c-3.3,1-6.5,1.9-9.8,2.9c-1.5,1.3-3.1,2.3-4.8,3c-1.6,0.7-3.5,0.3-5.2,0.4C44,34.2,41.1,34.7,37.9,33.8z"/>
<polygon class="st6" points="67.2,34.7 59.3,33.2 61.4,70.2 82.8,69.4 82.1,57.2 73,45.4 "/>
<path class="st7" d="M47.1,130.1c-1.1,1.8-0.4,4.5-1.3,6.2c-0.9,1.7-2.4,4.6-3.9,3.8c-1-0.5-1.4-4.4-0.9-6.2c0.5-2.1,2.4-3.3,3-5.3
	c-0.7-0.7-1.2-1.5-1.3-2.6c-0.2-1.3,0.5-2.2,1.1-3.5c0.4-0.9-0.1-2.3,0.9-2.9c0.7-0.4,1.5-0.5,1.8-1.1c0.9-1.6,1-3.9,3.2-5.4
	c2.3-1.6,3.1-5.5,6.1-7.4c-0.5-12.3,0.5-23.1,2.7-35.4c8.1-0.3,16.3-0.6,24.4-0.8c2.7,10.2,4.7,20.5,4.5,30.5
	c0.4,4.4,0.1,7.4-1.8,9.6c-1.3,1.9-4.6,4.4-6,6.9c-1.3,2.3-5.3,7-7.3,8.1c-4.5,2.7-4,2.6-6.9,5.5c-0.6,0.6-1.8-0.2-3-1.6
	c-1.4,1.6-1.2,3.9-2.6,5.6c-1.1,1.4-4.5,3.3-5.5,2.9c-1.6-0.7-0.1-3.7,0.7-5.4c0.9-1.9,3.5-3,4.4-5.3c0.2-0.4,0.6-0.7,1.1-0.9
	c-0.6-1.4-1-2.8-0.8-3.9c0.1-0.9,1.6-1,3-2.4c0.5-0.5,0.6-2.2,1.2-2.7c3.1-2.8,7.9-5.4,9.8-8.6c1.3-2.2,1.4-5.1,1.3-7.7
	c-0.2-4.1-1.4-8.2-2-12.3c-2.4,5.5-4.5,11.2-5.4,17.8c-0.2,2.9-1.1,4.9-2.5,6.3c-7.2,4.2-9.3,11.4-11.3,13.2c-1,0.8-2.9,1.8-2.6,3.2
	c0.4,1.9-0.5,1.9-1.6,2C48.6,130.3,47.9,130.2,47.1,130.1z"/>
<path class="st3" d="M58.6,70.3L59.5,36l12.1-1.4c3.8,11.6,7.6,23.3,11.4,34.9c-5.9,0.3-11.3,1.5-15.9,2.3
	C63.8,72.4,60.9,71.3,58.6,70.3z"/>
<path class="st8" d="M57.3,49.1c1.1-1.7,2.4-4,3.4-5.8c4.6,1.3,8.2,0.3,10.8-1.6c1.5,1.8,2.8,3,3.4,4.5c-0.2,2.3-1.2,4.9-2.1,6.9
	c-1,2.3-2.1,3.4-4,6.3c-4.1-2.3-5.6-4.4-8.3-7.6C59.2,50.5,58.7,50.4,57.3,49.1z"/>
<path class="st9" d="M81.6,78c3.3,1.1,6.3,3.2,9.8,4.1c4.2-5,8.7-10.5,13-15.5c1.4-1.6,2.9-1.7,4.5-0.9c6.2,2.9,12.4,5.7,18.6,8.6
	c1,0.4,1.2,1.2-0.3,2.6c-4.4,5.2-8.7,10.4-13.1,15.6c-0.4,0.5-1.3,1.5-2,1.2c-10.9-4.9-20.9-9.1-32-14C79.4,79.5,80.5,77.7,81.6,78z
	"/>
<path class="st10" d="M81.6,78c3.3,1.1,6.3,3.2,9.8,4.1c4.3,1.9,17.6,7.9,22.9,10.3c-0.2,0.6-1.5,1.6-2.2,1.3
	c-10.9-4.9-20.9-9.1-32-14C79.4,79.5,80.5,77.7,81.6,78z"/>
<path class="st11" d="M62.7,54.5l-3.5-3.9c0.5-2.1,1-4.1,1.5-5.4C61.1,47.9,61.9,51.3,62.7,54.5z"/>
<path class="st12" d="M62.7,54.5l-3.5-3.9c-0.6,2.7-1.2,5.5-1.9,7.1c1.1,3.9,0.5,10.5,0,16.1l8.7-2c-0.4-1.8-2.4-4.6-2.7-6
	c-0.3-1.5,0.3-2.7,0.4-4.4C63.8,59.9,63.3,57.3,62.7,54.5z"/>
<path class="st8" d="M62.5,53.9l0.3,1.3c-0.6-0.6-1.1-1.3-1.7-2c-0.3-0.3-0.5-0.6-0.9-1.1c-0.7-0.9-1.2-1.3-1.8-1.7
	c-0.2-0.1-0.3-0.3-0.5-0.4c0.1,0,0.1-0.1,0.2-0.1c0.2,0,0.5-0.3,0.4-0.2l0,0l0,0l0.3,0.2c0.6,0.5,1.2,0.9,1.9,1.8
	c0.3,0.3,0.6,0.7,0.9,1.1C61.9,53.2,62.2,53.6,62.5,53.9z"/>
<path class="st13" d="M62.5,53.9l0.3,1.3c1.5,1.7,3.1,3.1,5.8,4.6l0.3,0.1l0.2-0.2c0.6-0.9,1.1-1.6,1.6-2.3c1-1.4,1.8-2.5,2.5-4.1
	c0.4-1,0.9-2.2,1.3-3.4c0.4-1.2,0.7-2.5,0.8-3.7l0-0.1c-0.4-1.2-1.3-2.1-2.3-3.3c-0.4-0.4-0.8-0.9-1.1-1.3l-0.2-0.2l-0.2,0.2
	c-3.2,2.3-6.8,2.6-10.5,1.5L60.6,43l-0.1,0.2c-1,1.6-1.9,3.3-2.9,4.9c0,0,0.1,0,0.1,0L58,48l0.1,0c0.1,0,0.2,0,0.2,0
	c0.8-1.4,1.6-2.8,2.5-4.2c3.7,1,7.4,0.7,10.6-1.5c0.3,0.4,0.7,0.8,1,1.1c1,1.1,1.8,2,2.1,3c-0.1,1.1-0.4,2.3-0.8,3.5
	c-0.4,1.2-0.9,2.3-1.3,3.3c-0.6,1.5-1.4,2.6-2.4,3.9c-0.4,0.6-0.9,1.3-1.4,2C65.7,57.5,64.2,55.9,62.5,53.9z"/>
<path class="st14" d="M66,72l-8.7,2c-0.2,2.3-0.4,4.3-0.5,6.1c-0.1,1.5,5.7,1.6,7.5,0c-0.6-1.8,0-2.7,0.3-3.7
	c0.4-1.2,1.3-2.3,1.4-3.7C66.1,72.4,66.1,72.2,66,72z"/>
<path class="st5" d="M53.6,50.2c2.1-1.3,4.7-12.8,6.7-14.1c0.2-0.2,0.5,10,0.4,11.4c-0.1,3.1,1.9,7.1,0.9,11.2
	C61,61,60.4,64.1,62,66.9c3.4,6.1,1.4,7.7,0.6,9.1c-0.4,0.9,0.2,1.9,0.3,2.7C59.4,80,52,77.6,53,76c0.6-1,1.5-1.9,1.2-2.6
	c-0.4-0.9-0.4-1.7-0.2-2.5c0.4-1.4,3-2.5,0.6-6c-0.7-1-1.1-2.5-1-3.7C53.8,58.1,55.2,53.5,53.6,50.2z"/>
<path class="st15" d="M64.4,21.2c-4.4-0.7-8.7-1.4-13.1-2.1c-1.3-1.2-1.4-2.3-2.3-3.6c-0.2-0.3,0.3-0.5,0-0.9
	c-0.9-1.1-0.4-4.8-0.2-5.8c0.2-0.6,0.3,1.8,0.7,1.4c-0.6-2.3-0.3-3.6-0.2-3.4c0.1,0.2,0.2,1.2,1,2.2C50.1,8.2,49.4,5.8,50,6
	c0.7,0.2,2.2-0.5,2.9-0.6c1-0.1,1.9-0.3,3.2,1.4c-0.3-0.8,0.6-1.3,1.3-1.3c3.7,0.3,4,2,4.4,3.4c1-0.5,2.3,0.6,3.4,0.9
	C67.6,18.4,65.7,19.1,64.4,21.2z"/>
<path class="st6" d="M64.5,18.6c-2.8,2.4-6.4,5.6-9.2,8.1c1,1.1,1.8,2.2,1.6,3.8c0.2,0.3-0.5,1.5-0.3,1.7c1.1,1.2,2,2.8,3.5,3.5
	c3.5,1.6,5.5,0.4,8-1c1.7-1,0.2-3.5,0-5.3c-0.1-0.8-0.4-1.3-1.5-1.8C64.9,25.7,64.1,22.3,64.5,18.6z"/>
<path class="st16" d="M42.7,34.3c0.8,3.1,0.3,6.6-1.6,9.7c-2.2-0.5-4.3-1-5.6-1.7c3.2-2.5,4.4-5.2,2.5-8.5
	C39.6,34.3,41.1,34.1,42.7,34.3z"/>
<path class="st16" d="M81.4,27.1c1.3,3.3,4.8,7.7,8.7,6c1.9-0.9,4-1.7,6-2.5c-4,0-7.7-0.7-9.8-4.2C84.6,26.1,82.7,26.3,81.4,27.1z"
	/>
<path class="st17" d="M79,17.2c-3.8-1.1-6.7-4.5-9.2-2.3c-1.2,1.1-2.2,2.6-2.5,4.2c-0.5,2.3,0.3,4.1,3.4,3.5
	c1.8-0.4,2.9-1.9,4.7-1.5c3.7,0.9,7.6,3.5,10.3,6.2c2.4,2.3,5.5,3.1,10.4,3.1c0.7-0.8,1.8-1.3,2.1-2.3c0.3-1.3,0.4-3.1-0.6-3.9
	C93,20.1,86.2,19.4,79,17.2z"/>
<path class="st17" d="M36.7,18.6c-0.4,5.1,0.5,10.7,2.3,15.4c1.5,4,0.8,8.5-3.5,8.2c-4.8-0.3-6.4-7-4.1-22.6
	c0.3-2.3-1.2-4.7-0.6-6.9c0.5-2,2.5-3.2,3.8-4.8c1-1.6,1.5-3.4,2.2-5c0.7-1.6,1.3-1.4,1.3,0c0,0-1.1,5.3,0.4,5.4
	c0.6-1.7,2-1,1.8,0.3c-0.6,2.4-0.6,4.4-1,6.1C39,16.3,36.8,17.1,36.7,18.6z"/>
<path class="st18" d="M58.1,34.5c-0.2,0.6-1,1.5-1.2,2.1c2.4,0.2,2.8,5.9,3.9,9.1c-0.3-3.4-0.7-6.9-1-10.3
	C59.2,35.1,58.6,34.8,58.1,34.5z"/>
<path class="st17" d="M53.8,25.2c-1.5-1.6-1.6-3.8-2.5-6.1c-2-5.2,4.1-11.1,9.6-7.2c1.6,1.2,1.3,3.5,1.9,4.8
	c1.6-1.9,2.1-0.7,1.4,3.7C63.8,29.3,59.2,31,53.8,25.2z"/>
<path class="st16" d="M60.7,46c0-4.1,1.1-9.1-0.7-12.6c-0.3-0.6-1.5-0.6-1.9-1.1c-0.5-0.5-1.1-0.9-1.1-1.9c-2.4,2.7-2.7,5.1-1.6,7.3
	c1.5-1.2,2.6-1.9,3.3-1.8C59.5,37.2,60,40.6,60.7,46z"/>
<path class="st19" d="M74.2,94.8c-0.3-1.5-1.1-5.5-1.4-7c0.3-1,1.2-2.3,1.6-2.9C73.9,87.1,73.9,92.5,74.2,94.8z"/>
<path class="st13" d="M63.8,49c3.6-0.8,7.6-2.5,9.5,0.2c0.3-0.8,0.6-1.6,0.9-2.4c-0.8-1.2-1.5-2.4-2.3-3.6c0.1,0.8,0.2,1.6,0.3,2.4
	c-0.7,0.4-1.5,0.8-2.2,1.2c-1.8-1.8-4.2-2-7.5,0.1C61.5,48.4,62.2,49,63.8,49z"/>
<path class="st13" d="M70.2,52.6c-2.9,0.8-5.6,1.3-8.1,0.5c0.9,0.8,1.7,1.6,2.6,2.5c1.2-1.1,2.3-1.6,3.5,0c1.4,0.2,2.4-0.3,3.2-1.4
	C72,53,71.8,52.3,70.2,52.6z"/>
<path class="st5" d="M81.5,38.8c-1.5,1.2-10.6-5.5-13.3-6c-2-0.4,2.2,5.1,1.1,6c-0.5,0.4,2.3,5.5,3,7.2c1.1,2.9,3.9,5.5,4.5,8.8
	c0.5,2.5-1.2,5.8-0.4,8.1c0.8,2.1,4,1.8,4.8,3.9c0.5,1.2,0.4,2.3,1.5,2.8c2.5,1.2-0.2,5.3-1,6.2c5.7-2.3,9.7-6.3,10-10.7
	c-3.6-5.6-5.2-2-4.2-7.6c0.3-1.6-2.3-2.4-3.4-3.6C80.7,49.9,79.5,45.2,81.5,38.8z"/>
<path class="st18" d="M70,29.7c1.4,0.6,2.4,2.2,3.3,3.5c-4.5,0.7-1.5,10.1-1,12.6c-1.6-4.1-3.5-8.8-5.1-12.8
	C68.2,31.9,69.1,30.8,70,29.7z"/>
<path class="st16" d="M72.4,45.9c-1.7-3.1-4.4-7.9-5.5-12.2c-0.3-1.1,0.5-2.3,0.6-3.3c0.1-1.2,0.5-1.8-0.7-2.7
	c2.9,0.3,5.4,1.6,7.5,3.9c-2.5-0.1-4.1-0.6-4.9,0.2C68,35.1,71.1,42.2,72.4,45.9z"/>
<polygon class="st17" points="109,78.6 110.7,77.5 113.5,78.8 113.5,81 109.5,82.6 "/>
</svg>