<?xml version="1.0" encoding="utf-8"?>
<!-- Generator: Adobe Illustrator 19.0.0, SVG Export Plug-In . SVG Version: 6.00 Build 0)  -->
<svg version="1.1" id="LOGO" xmlns="http://www.w3.org/2000/svg" xmlns:xlink="http://www.w3.org/1999/xlink" x="0px" y="0px"
	 viewBox="0 0 40 41.9" style="enable-background:new 0 0 40 41.9;" xml:space="preserve">
<style type="text/css">
	.Arched_x0020_Green{fill:url(#SVGID_1_);stroke:#FFFFFF;stroke-width:0.25;stroke-miterlimit:1;}
	.st0{fill-rule:evenodd;clip-rule:evenodd;fill:#66B26F;}
	.st1{fill-rule:evenodd;clip-rule:evenodd;fill:#00AEEF;}
	.st2{fill-rule:evenodd;clip-rule:evenodd;fill:#0089CF;}
	.st3{fill:url(#XMLID_109_);}
</style>
<linearGradient id="SVGID_1_" gradientUnits="userSpaceOnUse" x1="-1034.4688" y1="951.6902" x2="-1033.7616" y2="950.9832">
	<stop  offset="0" style="stop-color:#20AC4B"/>
	<stop  offset="0.9831" style="stop-color:#19361A"/>
</linearGradient>
<g id="XMLID_860_">
	<path id="XMLID_858_" class="st0" d="M13,15.4L13,15.4c1.1,0,2.1,0.9,2.1,2.1V26c0,1.1-0.9,2.1-2.1,2.1h0c-1.1,0-2.1-0.9-2.1-2.1
		v-8.4C10.9,16.4,11.9,15.4,13,15.4z"/>
	<path id="XMLID_857_" class="st1" d="M21.2,16.5L21.2,16.5c0.6,1,0.2,2.3-0.8,2.8l-4.2,2.4l4.2,2.4c1,0.6,1.3,1.8,0.8,2.8l0,0
		c-0.6,1-1.8,1.3-2.8,0.8l-7.3-4.2c-0.2-0.1-0.3-0.2-0.4-0.3l0,0l0,0c-0.1-0.1-0.2-0.3-0.3-0.4l0,0c-0.2-0.3-0.3-0.7-0.3-1
		c0-0.4,0.1-0.7,0.3-1l0,0c0.1-0.1,0.2-0.3,0.3-0.4l0,0l0,0c0.1-0.1,0.3-0.2,0.4-0.3l7.3-4.2C19.4,15.2,20.6,15.5,21.2,16.5z"/>
	<path id="XMLID_855_" class="st2" d="M15.1,25.8l-4-2.3c-0.1,0-0.1-0.1-0.1-0.1V20c0,0,0.1-0.1,0.1-0.1l4-2.3V25.8z"/>
</g>
<linearGradient id="XMLID_109_" gradientUnits="userSpaceOnUse" x1="-2.6532" y1="13.366" x2="33.7764" y2="34.3987">
	<stop  offset="0" style="stop-color:#3AB0E5"/>
	<stop  offset="0.1558" style="stop-color:#3DB0E1"/>
	<stop  offset="0.3015" style="stop-color:#42B1DA"/>
	<stop  offset="0.4431" style="stop-color:#49B1CE"/>
	<stop  offset="0.5823" style="stop-color:#50B1BF"/>
	<stop  offset="0.7198" style="stop-color:#57B1AA"/>
	<stop  offset="0.856" style="stop-color:#5FB191"/>
	<stop  offset="0.9886" style="stop-color:#66B272"/>
	<stop  offset="1" style="stop-color:#66B26F"/>
</linearGradient>
<path id="XMLID_89_" class="st3" d="M39.8,20.5c-1-4.1-5.3-7.9-7.7-9.6C23.5,3.9,10.4-1.9,5.6,0.6c-3.5,1.8-5,9.3-5.4,16.8
	c0,0,0,0,0,0c0,0-0.1,1.1-0.1,2c-0.2,4.6,0,9,0.4,11.9c0,0.1,0,0.2,0,0.3c0.2,1.6,0.6,3.1,1,4.5c1.6,4.5,4.2,5.4,4.2,5.4
	c0.2,0.1,0.5,0.2,0.8,0.3c2.9,0.6,6.4-0.6,9.1-1.5c1.3-0.5,2.6-0.9,3.8-1.4c0,0,0,0,0,0c3.1-1.3,9.5-4.4,13.5-7.3
	c3.8-2.8,6.6-5.9,7-8.8c0-0.3,0.1-0.5,0.1-0.8C40,21.5,39.9,21,39.8,20.5z M10.1,31.1c-3-2.1-5-5.6-5-9.5c0-4.7,2.8-8.8,6.9-10.6
	c1.5-0.7,3.1-1,4.8-1c6,0,10.9,4.5,11.6,10.3c0.1,0.4,0.1,0.9,0.1,1.4c0,6.4-5.2,11.7-11.7,11.7C14.3,33.3,12,32.5,10.1,31.1z"/>
</svg>
