<?xml version="1.0" standalone="no"?>
<!DOCTYPE svg PUBLIC "-//W3C//DTD SVG 20010904//EN"
 "http://www.w3.org/TR/2001/REC-SVG-20010904/DTD/svg10.dtd">
<svg version="1.0" xmlns="http://www.w3.org/2000/svg"
 width="225.000000pt" height="225.000000pt" viewBox="0 0 225.000000 225.000000"
 preserveAspectRatio="xMidYMid meet">
<metadata>
Created by potrace 1.15, written by Peter Selinger 2001-2017
</metadata>
<g transform="translate(0.000000,225.000000) scale(0.100000,-0.100000)"
fill="#000000" stroke="none">
<path d="M860 1928 c-286 -217 -450 -545 -450 -898 0 -169 39 -349 104 -478
l22 -44 1 89 c1 170 56 305 169 420 82 84 191 143 314 169 88 19 247 14 323
-9 26 -8 47 -14 47 -12 0 8 -388 295 -400 295 -31 0 -179 -82 -242 -134 -101
-84 -168 -185 -220 -331 -15 -44 -25 -66 -22 -48 3 21 0 40 -12 58 -9 14 -14
28 -10 32 3 3 6 1 6 -6 0 -7 5 -9 12 -5 7 4 8 3 4 -4 -4 -7 -4 -17 0 -23 8
-14 46 100 39 119 -3 7 -1 11 4 8 12 -8 54 92 45 106 -4 6 -3 8 3 5 12 -8 56
60 48 73 -3 5 0 12 6 16 8 5 9 3 4 -7 -8 -12 -6 -12 8 0 14 11 15 16 5 29 -8
10 -9 13 -1 9 6 -4 47 28 99 80 48 47 81 83 74 78 -9 -5 -11 -4 -6 4 4 6 12 9
17 6 10 -7 61 29 53 38 -3 3 1 4 8 4 7 -1 45 15 83 34 39 20 106 48 151 62 85
27 257 51 302 42 15 -3 -13 15 -63 40 -70 36 -94 43 -107 35 -25 -15 -35 -12
-14 3 21 15 42 3 -216 126 -70 34 -129 61 -130 61 -2 0 -28 -19 -58 -42z"/>
<path d="M55 1721 c-17 -8 -17 -10 -3 -10 32 -2 123 -48 185 -95 65 -49 141
-141 176 -213 l21 -43 28 76 c15 42 25 81 21 87 -4 6 -1 7 7 2 10 -6 12 -4 7
8 -3 10 -3 17 2 17 10 0 47 67 41 73 -14 13 -121 61 -174 79 -68 22 -276 35
-311 19z"/>
<path d="M880 690 l0 -180 45 0 45 0 0 68 0 67 65 2 65 1 0 -69 0 -69 50 0 50
0 0 180 0 180 -50 0 -50 0 0 -70 0 -70 -65 0 -65 0 0 70 0 70 -45 0 -45 0 0
-180z"/>
<path d="M1222 720 l3 -150 32 -32 c29 -29 40 -33 101 -36 136 -8 162 29 162
232 l0 136 -45 0 -45 0 0 -117 c0 -134 -10 -166 -53 -171 -52 -6 -57 8 -57
154 l0 134 -51 0 -51 0 4 -150z"/>
<path d="M1550 691 l0 -181 110 0 c104 0 112 1 135 25 l25 24 0 -24 c0 -22 5
-25 35 -25 l35 0 0 60 0 60 -35 0 c-24 0 -35 5 -35 15 0 8 -13 24 -29 36 -28
21 -28 22 -10 40 29 29 25 90 -7 120 -23 21 -36 24 -125 27 l-99 4 0 -181z"/>
<path d="M556 660 c-8 -84 4 -177 33 -261 29 -86 50 -121 67 -115 9 3 63 6
121 6 l106 0 -39 29 c-21 15 -52 40 -67 55 -16 14 -32 24 -37 21 -9 -6 -32 19
-24 27 3 4 -11 27 -30 52 -39 51 -91 155 -110 219 l-13 42 -7 -75z"/>
</g>
</svg>
